<svg width="474" height="748" viewBox="0 0 474 748" fill="none" xmlns="http://www.w3.org/2000/svg">
<mask id="path-1-inside-1" fill="white">
<path fill-rule="evenodd" clip-rule="evenodd" d="M474 0H0V748H474V0ZM41.5 59C51.165 59 59 51.165 59 41.5C59 31.835 51.165 24 41.5 24C31.835 24 24 31.835 24 41.5C24 51.165 31.835 59 41.5 59Z"/>
</mask>
<path fill-rule="evenodd" clip-rule="evenodd" d="M474 0H0V748H474V0ZM41.5 59C51.165 59 59 51.165 59 41.5C59 31.835 51.165 24 41.5 24C31.835 24 24 31.835 24 41.5C24 51.165 31.835 59 41.5 59Z" fill="#112424"/>
<path d="M0 0V-3H-3V0H0ZM474 0H477V-3H474V0ZM0 748H-3V751H0V748ZM474 748V751H477V748H474ZM0 3H474V-3H0V3ZM3 748V0H-3V748H3ZM474 745H0V751H474V745ZM471 0V748H477V0H471ZM56 41.5C56 49.5081 49.5081 56 41.5 56V62C52.8218 62 62 52.8218 62 41.5H56ZM41.5 27C49.5081 27 56 33.4919 56 41.5H62C62 30.1782 52.8218 21 41.5 21V27ZM27 41.5C27 33.4919 33.4919 27 41.5 27V21C30.1782 21 21 30.1782 21 41.5H27ZM41.5 56C33.4919 56 27 49.5081 27 41.5H21C21 52.8218 30.1782 62 41.5 62V56Z" fill="#FFDDB5" mask="url(#path-1-inside-1)"/>
<path d="M0 0V-3H-3V0H0ZM474 0H477V-3H474V0ZM0 748H-3V751H0V748ZM474 748V751H477V748H474ZM0 3H474V-3H0V3ZM3 748V0H-3V748H3ZM474 745H0V751H474V745ZM471 0V748H477V0H471ZM56 41.5C56 49.5081 49.5081 56 41.5 56V62C52.8218 62 62 52.8218 62 41.5H56ZM41.5 27C49.5081 27 56 33.4919 56 41.5H62C62 30.1782 52.8218 21 41.5 21V27ZM27 41.5C27 33.4919 33.4919 27 41.5 27V21C30.1782 21 21 30.1782 21 41.5H27ZM41.5 56C33.4919 56 27 49.5081 27 41.5H21C21 52.8218 30.1782 62 41.5 62V56Z" fill="url(#paint0_linear)" mask="url(#path-1-inside-1)"/>
<rect x="64.5" y="109.5" width="345" height="93" stroke="#FFDDB5"/>
<rect x="64.5" y="109.5" width="345" height="93" stroke="url(#paint1_linear)"/>
<rect x="177" y="64" width="132" height="79" fill="#112424"/>
<path d="M207.446 103.824C214.55 103.824 219.27 103.424 221.606 102.624C221.67 102.752 221.75 103.104 221.846 103.68C221.942 104.256 221.99 104.672 221.99 104.928C221.126 105.152 220.55 105.408 220.262 105.696C220.006 105.952 219.798 106.432 219.638 107.136C218.422 112.672 217.254 117.328 216.134 121.104C215.046 124.912 213.67 128.16 212.006 130.848C210.694 132.96 208.774 134.992 206.246 136.944C203.718 138.896 200.454 139.872 196.454 139.872C194.886 139.872 193.51 139.696 192.326 139.344C191.142 139.024 190.214 138.624 189.542 138.144C188.87 137.696 188.438 137.296 188.246 136.944L187.67 135.792C188.31 136.208 189.446 136.576 191.078 136.896C192.71 137.216 194.262 137.376 195.734 137.376C200.278 137.376 204.038 135.632 207.014 132.144C210.022 128.688 212.326 123.44 213.926 116.4C211.334 119.472 207.75 121.008 203.174 121.008C200.454 121.008 198.038 120.48 195.926 119.424C193.814 118.336 192.166 116.736 190.982 114.624C189.798 112.48 189.206 109.888 189.206 106.848C189.206 103.072 190.102 99.584 191.894 96.384C193.718 93.152 196.23 90.576 199.43 88.656C202.63 86.736 206.246 85.776 210.278 85.776C212.582 85.776 214.822 86.096 216.998 86.736C219.174 87.376 220.966 88.24 222.374 89.328C221.606 91.44 221.014 93.84 220.598 96.528C220.406 96.528 220.166 96.56 219.878 96.624C219.622 96.656 219.43 96.704 219.302 96.768C219.302 96.608 219.27 96.112 219.206 95.28C219.142 94.416 219.078 93.776 219.014 93.36C218.694 91.568 217.654 90.304 215.894 89.568C214.134 88.832 212.166 88.464 209.99 88.464C206.406 88.464 203.398 89.36 200.966 91.152C198.566 92.944 196.774 95.248 195.59 98.064C194.438 100.848 193.862 103.792 193.862 106.896C193.862 110.512 194.694 113.328 196.358 115.344C198.022 117.36 200.534 118.368 203.894 118.368C206.166 118.368 208.166 117.92 209.894 117.024C211.654 116.128 213.014 114.912 213.974 113.376C214.934 111.808 215.414 110.096 215.414 108.24C215.414 107.28 215.27 106.656 214.982 106.368C214.694 106.048 214.198 105.888 213.494 105.888C211.958 105.888 209.782 106.096 206.966 106.512C206.966 106.128 207.014 105.648 207.11 105.072C207.206 104.496 207.318 104.08 207.446 103.824ZM223.379 119.616C223.923 119.392 224.339 119.168 224.627 118.944C224.915 118.688 225.107 118.384 225.203 118.032C226.035 114.928 227.235 109.904 228.803 102.96C230.403 96.016 231.283 91.92 231.443 90.672C231.475 90.544 231.491 90.384 231.491 90.192C231.491 89.712 231.331 89.392 231.011 89.232C230.691 89.04 230.131 88.944 229.331 88.944C227.635 88.944 226.227 89.056 225.107 89.28C225.107 88.608 225.203 88.016 225.395 87.504C225.587 86.992 225.891 86.736 226.307 86.736C230.051 86.704 232.531 86.656 233.747 86.592C234.995 86.528 236.515 86.4 238.307 86.208C238.467 86.272 238.563 86.544 238.595 87.024C238.627 87.472 238.627 87.84 238.595 88.128C237.539 88.256 236.835 88.416 236.483 88.608C236.131 88.768 235.891 89.104 235.763 89.616C235.507 90.608 234.243 96.672 231.971 107.808C230.691 114.112 229.987 117.536 229.859 118.08C229.667 118.912 229.075 119.472 228.083 119.76C227.091 120.048 225.683 120.192 223.859 120.192L223.379 119.616ZM264.973 85.344C265.133 85.344 265.277 85.44 265.405 85.632C265.245 85.824 265.069 86.336 264.877 87.168C264.685 88 264.557 88.672 264.493 89.184C264.397 89.728 264.157 90 263.773 90C262.429 90 259.901 89.84 256.189 89.52C255.389 89.456 254.365 89.392 253.117 89.328C251.901 89.232 251.053 89.184 250.573 89.184C249.997 89.184 249.597 89.264 249.373 89.424C249.149 89.552 248.989 89.84 248.893 90.288C248.253 93.488 247.501 97.392 246.637 102C247.981 102.096 249.565 102.144 251.389 102.144C255.645 102.144 259.053 101.76 261.613 100.992L261.853 101.184C261.661 101.504 261.469 102.064 261.277 102.864C261.085 103.632 260.957 104.256 260.893 104.736L253.837 104.592C252.941 104.56 250.381 104.496 246.157 104.4C244.525 113.008 243.709 117.696 243.709 118.464C243.709 118.976 243.725 119.296 243.757 119.424C242.797 119.872 241.789 120.096 240.733 120.096C239.421 120.096 238.765 119.744 238.765 119.04C238.765 118.688 238.973 117.472 239.389 115.392C239.613 114.176 240.013 112.224 240.589 109.536C240.845 108.32 241.549 104.8 242.701 98.976C243.885 93.12 244.477 89.856 244.477 89.184C244.477 88.992 244.413 88.864 244.285 88.8C244.157 88.736 243.933 88.704 243.613 88.704L241.645 88.8L240.397 88.848C239.917 88.848 239.677 88.688 239.677 88.368C239.677 88.048 239.933 87.28 240.445 86.064C244.157 86.288 248.381 86.4 253.117 86.4C256.989 86.4 259.725 86.336 261.325 86.208C262.957 86.048 264.173 85.76 264.973 85.344ZM266.945 106.032C265.377 105.552 264.081 104.64 263.057 103.296C262.065 101.92 261.569 100.144 261.569 97.968C261.569 95.408 262.289 93.184 263.729 91.296C265.169 89.376 267.153 87.904 269.681 86.88C272.209 85.856 275.073 85.344 278.273 85.344C279.809 85.344 281.297 85.456 282.737 85.68C284.209 85.872 285.905 86.16 287.825 86.544C288.977 86.768 290.129 86.976 291.281 87.168C292.433 87.328 293.425 87.408 294.257 87.408C295.665 87.408 296.945 87.184 298.097 86.736C299.281 86.256 300.241 85.504 300.977 84.48C300.849 86.688 300.113 88.432 298.769 89.712C297.425 90.96 295.537 91.584 293.105 91.584C291.697 91.584 290.273 91.408 288.833 91.056C287.425 90.672 285.569 90.112 283.265 89.376C281.345 88.704 279.729 88.208 278.417 87.888C277.105 87.536 275.873 87.36 274.721 87.36C272.897 87.36 271.345 87.824 270.065 88.752C268.785 89.68 267.809 90.896 267.137 92.4C266.497 93.872 266.177 95.456 266.177 97.152C266.177 99.04 266.625 100.64 267.521 101.952C268.449 103.264 269.937 104.416 271.985 105.408L271.793 105.648C269.297 105.648 267.681 105.776 266.945 106.032ZM265.409 120.72C263.969 120.72 262.625 120.576 261.377 120.288C260.129 120.032 259.105 119.728 258.305 119.376C258.049 118.384 257.921 117.28 257.921 116.064L258.209 115.536C260.289 117.776 262.769 118.896 265.649 118.896C270.961 118.896 274.465 115.216 276.161 107.856C277.633 101.552 278.769 96.816 279.569 93.648C280.209 92.784 280.977 92.016 281.873 91.344C282.801 90.64 283.649 90.128 284.417 89.808L284.849 89.952C284.273 91.168 283.745 92.784 283.265 94.8C282.785 96.784 282.161 99.632 281.393 103.344C281.137 104.752 280.833 106.208 280.481 107.712C279.361 112.256 277.473 115.568 274.817 117.648C272.193 119.696 269.057 120.72 265.409 120.72Z" fill="#FFDDB5"/>
<path d="M207.446 103.824C214.55 103.824 219.27 103.424 221.606 102.624C221.67 102.752 221.75 103.104 221.846 103.68C221.942 104.256 221.99 104.672 221.99 104.928C221.126 105.152 220.55 105.408 220.262 105.696C220.006 105.952 219.798 106.432 219.638 107.136C218.422 112.672 217.254 117.328 216.134 121.104C215.046 124.912 213.67 128.16 212.006 130.848C210.694 132.96 208.774 134.992 206.246 136.944C203.718 138.896 200.454 139.872 196.454 139.872C194.886 139.872 193.51 139.696 192.326 139.344C191.142 139.024 190.214 138.624 189.542 138.144C188.87 137.696 188.438 137.296 188.246 136.944L187.67 135.792C188.31 136.208 189.446 136.576 191.078 136.896C192.71 137.216 194.262 137.376 195.734 137.376C200.278 137.376 204.038 135.632 207.014 132.144C210.022 128.688 212.326 123.44 213.926 116.4C211.334 119.472 207.75 121.008 203.174 121.008C200.454 121.008 198.038 120.48 195.926 119.424C193.814 118.336 192.166 116.736 190.982 114.624C189.798 112.48 189.206 109.888 189.206 106.848C189.206 103.072 190.102 99.584 191.894 96.384C193.718 93.152 196.23 90.576 199.43 88.656C202.63 86.736 206.246 85.776 210.278 85.776C212.582 85.776 214.822 86.096 216.998 86.736C219.174 87.376 220.966 88.24 222.374 89.328C221.606 91.44 221.014 93.84 220.598 96.528C220.406 96.528 220.166 96.56 219.878 96.624C219.622 96.656 219.43 96.704 219.302 96.768C219.302 96.608 219.27 96.112 219.206 95.28C219.142 94.416 219.078 93.776 219.014 93.36C218.694 91.568 217.654 90.304 215.894 89.568C214.134 88.832 212.166 88.464 209.99 88.464C206.406 88.464 203.398 89.36 200.966 91.152C198.566 92.944 196.774 95.248 195.59 98.064C194.438 100.848 193.862 103.792 193.862 106.896C193.862 110.512 194.694 113.328 196.358 115.344C198.022 117.36 200.534 118.368 203.894 118.368C206.166 118.368 208.166 117.92 209.894 117.024C211.654 116.128 213.014 114.912 213.974 113.376C214.934 111.808 215.414 110.096 215.414 108.24C215.414 107.28 215.27 106.656 214.982 106.368C214.694 106.048 214.198 105.888 213.494 105.888C211.958 105.888 209.782 106.096 206.966 106.512C206.966 106.128 207.014 105.648 207.11 105.072C207.206 104.496 207.318 104.08 207.446 103.824ZM223.379 119.616C223.923 119.392 224.339 119.168 224.627 118.944C224.915 118.688 225.107 118.384 225.203 118.032C226.035 114.928 227.235 109.904 228.803 102.96C230.403 96.016 231.283 91.92 231.443 90.672C231.475 90.544 231.491 90.384 231.491 90.192C231.491 89.712 231.331 89.392 231.011 89.232C230.691 89.04 230.131 88.944 229.331 88.944C227.635 88.944 226.227 89.056 225.107 89.28C225.107 88.608 225.203 88.016 225.395 87.504C225.587 86.992 225.891 86.736 226.307 86.736C230.051 86.704 232.531 86.656 233.747 86.592C234.995 86.528 236.515 86.4 238.307 86.208C238.467 86.272 238.563 86.544 238.595 87.024C238.627 87.472 238.627 87.84 238.595 88.128C237.539 88.256 236.835 88.416 236.483 88.608C236.131 88.768 235.891 89.104 235.763 89.616C235.507 90.608 234.243 96.672 231.971 107.808C230.691 114.112 229.987 117.536 229.859 118.08C229.667 118.912 229.075 119.472 228.083 119.76C227.091 120.048 225.683 120.192 223.859 120.192L223.379 119.616ZM264.973 85.344C265.133 85.344 265.277 85.44 265.405 85.632C265.245 85.824 265.069 86.336 264.877 87.168C264.685 88 264.557 88.672 264.493 89.184C264.397 89.728 264.157 90 263.773 90C262.429 90 259.901 89.84 256.189 89.52C255.389 89.456 254.365 89.392 253.117 89.328C251.901 89.232 251.053 89.184 250.573 89.184C249.997 89.184 249.597 89.264 249.373 89.424C249.149 89.552 248.989 89.84 248.893 90.288C248.253 93.488 247.501 97.392 246.637 102C247.981 102.096 249.565 102.144 251.389 102.144C255.645 102.144 259.053 101.76 261.613 100.992L261.853 101.184C261.661 101.504 261.469 102.064 261.277 102.864C261.085 103.632 260.957 104.256 260.893 104.736L253.837 104.592C252.941 104.56 250.381 104.496 246.157 104.4C244.525 113.008 243.709 117.696 243.709 118.464C243.709 118.976 243.725 119.296 243.757 119.424C242.797 119.872 241.789 120.096 240.733 120.096C239.421 120.096 238.765 119.744 238.765 119.04C238.765 118.688 238.973 117.472 239.389 115.392C239.613 114.176 240.013 112.224 240.589 109.536C240.845 108.32 241.549 104.8 242.701 98.976C243.885 93.12 244.477 89.856 244.477 89.184C244.477 88.992 244.413 88.864 244.285 88.8C244.157 88.736 243.933 88.704 243.613 88.704L241.645 88.8L240.397 88.848C239.917 88.848 239.677 88.688 239.677 88.368C239.677 88.048 239.933 87.28 240.445 86.064C244.157 86.288 248.381 86.4 253.117 86.4C256.989 86.4 259.725 86.336 261.325 86.208C262.957 86.048 264.173 85.76 264.973 85.344ZM266.945 106.032C265.377 105.552 264.081 104.64 263.057 103.296C262.065 101.92 261.569 100.144 261.569 97.968C261.569 95.408 262.289 93.184 263.729 91.296C265.169 89.376 267.153 87.904 269.681 86.88C272.209 85.856 275.073 85.344 278.273 85.344C279.809 85.344 281.297 85.456 282.737 85.68C284.209 85.872 285.905 86.16 287.825 86.544C288.977 86.768 290.129 86.976 291.281 87.168C292.433 87.328 293.425 87.408 294.257 87.408C295.665 87.408 296.945 87.184 298.097 86.736C299.281 86.256 300.241 85.504 300.977 84.48C300.849 86.688 300.113 88.432 298.769 89.712C297.425 90.96 295.537 91.584 293.105 91.584C291.697 91.584 290.273 91.408 288.833 91.056C287.425 90.672 285.569 90.112 283.265 89.376C281.345 88.704 279.729 88.208 278.417 87.888C277.105 87.536 275.873 87.36 274.721 87.36C272.897 87.36 271.345 87.824 270.065 88.752C268.785 89.68 267.809 90.896 267.137 92.4C266.497 93.872 266.177 95.456 266.177 97.152C266.177 99.04 266.625 100.64 267.521 101.952C268.449 103.264 269.937 104.416 271.985 105.408L271.793 105.648C269.297 105.648 267.681 105.776 266.945 106.032ZM265.409 120.72C263.969 120.72 262.625 120.576 261.377 120.288C260.129 120.032 259.105 119.728 258.305 119.376C258.049 118.384 257.921 117.28 257.921 116.064L258.209 115.536C260.289 117.776 262.769 118.896 265.649 118.896C270.961 118.896 274.465 115.216 276.161 107.856C277.633 101.552 278.769 96.816 279.569 93.648C280.209 92.784 280.977 92.016 281.873 91.344C282.801 90.64 283.649 90.128 284.417 89.808L284.849 89.952C284.273 91.168 283.745 92.784 283.265 94.8C282.785 96.784 282.161 99.632 281.393 103.344C281.137 104.752 280.833 106.208 280.481 107.712C279.361 112.256 277.473 115.568 274.817 117.648C272.193 119.696 269.057 120.72 265.409 120.72Z" fill="url(#paint2_linear)"/>
<line x1="64" y1="322.5" x2="410" y2="322.5" stroke="#EBEBEB"/>
<defs>
<linearGradient id="paint0_linear" x1="4.34775e-09" y1="-2992" x2="451.04" y2="-2992" gradientUnits="userSpaceOnUse">
<stop stop-color="#DBBB4B"/>
<stop offset="0.30433" stop-color="#FFE5A3"/>
<stop offset="0.493543" stop-color="#C4A556"/>
<stop offset="0.691994" stop-color="#F5D277"/>
<stop offset="1" stop-color="#B19855"/>
</linearGradient>
<linearGradient id="paint1_linear" x1="64" y1="-267" x2="393.24" y2="-267.007" gradientUnits="userSpaceOnUse">
<stop stop-color="#DBBB4B"/>
<stop offset="0.30433" stop-color="#FFE5A3"/>
<stop offset="0.493543" stop-color="#C4A556"/>
<stop offset="0.691994" stop-color="#F5D277"/>
<stop offset="1" stop-color="#B19855"/>
</linearGradient>
<linearGradient id="paint2_linear" x1="185" y1="-89.9999" x2="284.914" y2="-90.0014" gradientUnits="userSpaceOnUse">
<stop stop-color="#DBBB4B"/>
<stop offset="0.30433" stop-color="#FFE5A3"/>
<stop offset="0.493543" stop-color="#C4A556"/>
<stop offset="0.691994" stop-color="#F5D277"/>
<stop offset="1" stop-color="#B19855"/>
</linearGradient>
</defs>
</svg>
