<svg width="977" height="608" viewBox="0 0 977 608" fill="none" xmlns="http://www.w3.org/2000/svg">
<rect x="34" width="943" height="608" fill="white"/>
<rect x="21.5" y="24.5" width="937" height="559" stroke="#F6DCD1"/>
<path d="M0 0H482V608H0V0Z" fill="#F6DCD1"/>
<path d="M119.837 76.3095C119.584 76.1412 119.332 75.9448 119.079 75.7765C118.883 75.6363 119.248 76.0009 119.248 76.0009C121.968 78.5815 126.148 79.2266 129.598 77.9363C134.899 75.8607 137.508 69.8019 134.871 64.6407C133.721 62.5369 131.842 61.0223 129.738 60.3491C127.606 59.6759 125.222 59.9003 123.259 60.9381C122.754 61.1906 122.305 61.5271 121.884 61.8918C120.622 62.9857 119.668 64.5285 119.276 66.1834C118.406 69.7458 120.678 73.5886 124.016 74.907C125.25 75.4119 126.625 75.4399 127.971 74.7948C129.205 74.2057 130.075 73.1679 130.496 71.9617C130.552 71.8215 130.58 71.6532 130.636 71.5129C130.664 71.3727 130.692 71.2324 130.72 71.0922C130.832 70.3629 130.832 69.5775 130.552 68.8762C130.047 67.642 128.644 67.053 128.504 65.6505C128.42 64.9212 128.588 64.1077 129.261 63.7992C129.318 63.7711 129.374 63.7711 129.43 63.7711C129.374 63.7711 128.392 63.6028 127.438 64.0516C126.456 64.5285 125.559 65.6785 125.867 68.3713C125.867 68.3713 126.541 71.1202 125.194 71.7654C124.24 72.2422 123.315 71.9898 122.586 71.4007C122.333 71.2044 122.109 70.98 121.884 70.7275C118.967 67.1652 122.193 62.3967 126.12 61.471C128.841 60.8259 131.842 62.0601 133.581 64.3882C135.236 66.7164 135.545 69.6336 134.563 72.2703C132.207 78.2729 124.942 79.7315 119.865 76.3095H119.837Z" fill="#FFF2EC"/>
<path d="M186.262 55.2406C185.785 54.9321 185.28 54.5955 184.775 54.2589C182.475 52.6039 176.557 45.8439 177.454 37.7655C178.099 31.875 180.512 27.3029 184.495 24.4138C184.27 24.6101 184.046 24.7784 183.85 24.9748C183.737 25.087 183.597 25.1992 183.485 25.3114C183.26 25.5077 183.036 25.7321 182.812 25.9846L181.662 27.4151C181.185 28.1163 180.68 28.8176 180.287 29.603C180.035 30.0518 179.81 30.5286 179.614 31.0055C179.025 32.3238 178.632 33.7263 178.38 35.1008C178.015 37.1765 177.903 39.168 178.099 40.9632C178.296 42.9548 178.772 44.8902 179.502 46.7134C180.259 48.5367 181.297 50.2477 182.615 51.7905C183.681 53.0247 184.915 54.1467 186.346 55.2406C186.318 55.2406 186.318 55.2406 186.29 55.2126L186.262 55.2406ZM104.777 74.1182C105.674 75.9414 106.824 77.5964 108.199 78.9989C109.573 80.3733 111.172 81.5795 112.911 82.5612C114.482 83.4588 116.333 84.1601 118.409 84.665C119.783 85.0016 121.214 85.1699 122.672 85.1699C123.205 85.1699 123.738 85.1418 124.243 85.1138C125.113 85.0857 125.954 84.9174 126.796 84.7211L128.591 84.2162C128.928 84.132 129.208 83.9918 129.489 83.8796C129.629 83.8235 129.769 83.7674 129.937 83.6832C130.19 83.571 130.442 83.4308 130.695 83.3186C126.459 85.815 121.326 86.2077 115.632 84.4406C107.862 82.0283 104.019 73.8938 103.43 71.1449C103.29 70.4717 103.178 69.8266 103.094 69.1814C103.542 70.9766 104.103 72.6035 104.833 74.1182H104.777ZM249.879 53.0527C248.813 50.5563 246.99 48.5647 244.606 47.4708C242.783 46.6293 240.847 46.4049 238.912 46.7695C240.875 43.9084 242.474 40.6547 243.736 37.0362C243.933 36.5033 244.129 35.9984 244.297 35.4935C245.812 30.8933 247.102 24.2455 244.55 18.8318C243.876 17.4013 242.923 16.0268 241.913 15.0731C240.651 13.867 238.771 13.1377 236.864 13.1377C233.863 13.1377 231.563 14.8487 231.002 17.4854C230.581 19.5331 230.945 21.3844 232.067 22.6747C232.741 23.4601 234.003 24.3857 235.433 24.3857C236.135 24.3857 236.752 24.1613 237.257 23.7406C237.902 23.2076 238.21 22.31 238.014 21.4966C237.846 20.7392 237.285 20.1782 236.555 20.0099C235.574 19.7855 234.536 19.4209 234.283 18.5233C233.863 17.0927 234.816 15.9707 235.994 15.6061C236.387 15.4939 236.78 15.4097 237.144 15.4097C239.949 15.4097 242.081 18.7477 242.839 20.9917C243.624 23.3759 243.905 25.7321 243.708 28.0041C243.596 29.07 243.456 30.1079 243.259 31.1738C242.081 36.2789 240.286 40.7108 237.902 44.4975C237.93 43.9084 237.902 43.3194 237.846 42.7584C237.649 41.3559 237.201 38.8595 235.826 36.4472C234.424 34.0068 232.376 32.2677 230.328 30.4164C228.701 28.9298 227.187 27.0224 227.748 24.6662C227.804 24.4418 228 23.993 228.281 24.1894C228.393 24.2735 228.393 24.4138 228.421 24.554C228.449 24.6662 228.477 24.7504 228.617 24.7504C228.758 24.7504 228.814 24.6662 228.814 24.554C228.814 24.3577 228.701 24.1613 228.533 24.1052C227.916 23.8247 227.327 24.3857 227.018 24.8906C225.924 26.6858 225.223 29.3786 226.233 31.3701C227.243 33.3617 228.449 34.2593 230.02 35.4374C226.514 35.0447 224.129 36.8118 222.951 38.8034C222.839 38.9997 222.727 39.1961 222.643 39.3924C222.362 39.8973 222.194 40.4303 222.138 40.9913C222.11 41.1876 222.11 41.384 222.11 41.5803C222.138 42.2816 222.418 42.9548 223.063 43.4596C223.624 43.9084 224.326 44.1048 224.999 44.0487C225.083 44.0487 225.167 44.0206 225.251 44.0206C225.335 44.0206 225.392 43.9926 225.476 43.9645C225.84 43.8523 226.233 43.684 226.514 43.3755C226.99 42.8706 226.962 42.0572 227.607 41.6645C227.944 41.4681 228.365 41.3559 228.673 41.6084C228.701 41.6364 228.729 41.6645 228.729 41.6925C228.729 41.6645 228.589 41.1596 228.14 40.7949C227.692 40.4303 226.934 40.262 225.7 40.9913C225.7 40.9913 224.522 41.945 223.905 41.412C222.839 40.5425 224.774 38.4387 225.392 37.8777C226.065 37.2606 226.878 36.7557 227.72 36.4752C228.589 36.1667 229.964 35.8581 231.647 36.4472C232.853 36.896 235.77 38.6351 236.864 41.945C235.546 39.8412 233.722 39.1119 231.927 38.7753C231.226 38.6351 230.328 38.9997 230.637 39.8132C230.917 40.5425 231.787 40.3461 232.376 40.3181C233.638 40.2339 234.9 40.7388 235.91 41.5523C236.724 42.1974 237.06 43.5999 237.004 44.9182C236.976 45.2829 236.948 45.6475 236.892 46.0402C234.171 49.8831 230.777 52.9686 226.738 55.2967C224.382 56.6431 221.913 57.681 219.305 58.4383C219.501 57.7932 219.894 56.3626 219.894 54.904C219.894 54.0625 219.81 53.1369 219.389 52.4076C218.996 51.7344 218.351 51.0892 217.566 50.949C217.201 50.8929 216.836 50.9209 216.584 51.2295C216.472 51.3697 216.444 51.5941 216.556 51.7624C216.612 51.8466 216.696 51.9307 216.808 51.8466C216.92 51.7905 216.92 51.6783 216.892 51.5941C216.864 51.4819 216.78 51.3417 216.836 51.2295C216.92 51.0892 217.061 51.0892 217.201 51.1453C217.538 51.2856 217.678 51.6502 217.79 51.9588C217.874 52.1832 217.93 52.4356 217.93 52.7161C217.93 53.782 217.089 54.5674 216.977 55.5772C216.864 56.587 217.622 57.6249 218.856 58.5785C218.547 58.6627 218.267 58.7468 217.958 58.8029C217.706 58.8591 217.425 58.8871 217.173 58.9432C215.153 58.8871 213.302 58.1017 211.899 55.9138C209.796 52.5759 207.776 50.0794 203.541 49.6587C202.755 49.5184 201.97 49.5184 201.212 49.6587C199.978 49.8831 198.407 50.5843 198.436 52.071C198.436 52.4917 198.716 52.8844 199.137 53.0247C199.361 53.1088 199.614 53.0808 199.698 52.8003C199.782 52.5478 199.642 52.3795 199.445 52.2673C199.221 52.1271 198.912 51.9868 198.828 51.7063C198.66 51.0051 199.754 50.8648 200.203 51.0051C200.595 51.1173 200.96 51.3978 201.24 51.7344C202.054 52.632 203.176 53.9784 204.13 55.0723C204.522 55.6053 204.943 56.0821 205.364 56.5029L205.392 56.5309C207.327 58.4664 209.403 59.42 211.338 59.7847C206.738 60.0652 201.773 59.5883 196.36 58.3261C196.276 58.298 196.163 58.27 196.051 58.242C195.799 58.1578 195.546 58.1017 195.294 57.9895L193.358 57.148C193.274 57.12 193.162 57.0358 193.022 56.9797L192.797 56.8675C189.095 54.9321 186.262 52.8283 184.186 50.416C183.036 49.0416 182.11 47.5549 181.437 45.9561C180.792 44.3292 180.371 42.6182 180.175 40.823C179.979 39.1961 180.063 37.485 180.399 35.5496C181.297 30.3042 184.663 25.9846 189.516 23.8247C195.63 21.1039 203.316 23.7686 206.177 29.9396C206.794 31.2579 207.075 32.7165 207.103 34.1751C207.131 38.579 204.578 43.0669 200.371 44.6097C198.015 45.4512 195.322 45.367 193.078 44.0767C191.563 43.2352 190.469 41.8328 189.824 40.2339C189.263 38.7753 189.207 37.5411 189.207 37.5411C189.207 37.5411 187.889 42.8706 192.938 46.7134C195.518 48.6769 200.511 49.5465 204.775 47.022C206.205 46.2927 207.411 45.0865 208.365 43.7682C208.59 43.4596 208.814 43.123 209.038 42.7865C209.571 41.973 209.992 41.1035 210.357 40.1778C211.03 38.6351 211.507 37.0082 211.871 35.3252C212.264 33.5019 212.909 31.5665 214.873 31.6506C215.686 31.6787 216.387 32.2397 216.359 33.1092C216.359 33.7263 215.798 34.091 215.294 34.3715C214.704 34.68 214.845 35.5496 215.434 35.8301C216.303 36.2228 217.145 35.4654 217.481 34.7361C217.846 33.9507 217.706 33.0251 217.313 32.2677C216.696 31.0896 215.209 30.6689 214.031 31.0896C211.787 31.847 211.31 34.5117 210.581 36.4752C210.16 37.5972 209.768 38.7192 209.207 39.7571C208.926 40.29 208.618 40.823 208.253 41.3559C206.542 43.684 204.13 45.7036 200.736 46.3207C200.736 46.3207 208.477 42.6182 208.954 34.8483C209.094 32.6604 208.702 30.5286 207.888 28.6212C207.636 28.0322 207.355 27.4712 207.019 26.9383C203.232 20.7673 194.508 17.8501 187.833 20.8234C181.297 23.7406 176.5 31.5945 176.472 38.1582C176.444 43.3474 178.38 49.7148 183.401 54.2869C177.538 52.1832 171.76 49.827 166.094 47.5269C165.785 47.4147 165.505 47.2744 165.196 47.1622C166.767 46.8256 168.254 46.0683 169.207 44.9463C169.965 44.0206 170.442 42.8987 170.526 41.7206C170.61 40.5986 170.442 39.4205 171.283 38.5229C171.479 38.2985 171.704 38.1302 171.984 38.046C172.293 37.9619 172.994 38.0741 172.882 38.5229C172.826 38.7192 172.63 38.8034 172.461 38.8875C172.321 38.9717 172.237 39.0839 172.293 39.2522C172.349 39.4485 172.517 39.4766 172.658 39.4205C172.938 39.3363 173.134 39.0839 173.134 38.8034C173.162 37.8216 172.153 37.3167 171.339 37.1765C169.712 36.8679 167.749 37.5131 166.879 38.8314C166.459 39.4766 166.234 40.29 166.318 41.1315C166.543 43.123 166.515 45.1987 164.467 46.2366C164.158 46.3768 163.822 46.461 163.513 46.489C162.335 46.0122 161.157 45.5353 159.979 45.0585C159.586 44.7499 159.194 44.4414 158.829 44.0767C157.903 43.1791 157.09 42.2535 156.332 41.1876C155.631 40.1498 155.154 38.9997 154.93 37.7655C154.621 36.1947 154.93 33.7544 156.837 33.3617C157.623 33.1934 158.436 33.5861 158.633 34.4276C158.773 35.0166 158.324 35.5215 157.903 35.8862C157.426 36.335 157.735 37.1484 158.38 37.2606C159.306 37.4289 159.951 36.4752 160.119 35.7179C160.288 34.8483 159.923 34.0068 159.362 33.3897C157.791 31.5945 154.986 32.969 154.369 34.9325C154.173 35.6057 154.088 36.4472 154.145 37.1484C154.341 39.9534 156.332 42.506 158.324 44.3011C158.408 44.3572 158.464 44.4414 158.548 44.4975C155.94 43.4596 153.275 42.4218 150.638 41.4681C149.825 41.1596 149.011 40.8791 148.198 40.5986C149.741 39.3083 150.835 37.6533 151.34 35.6618C151.985 33.1373 151.592 30.4445 150.33 28.0602C148.591 24.7504 145.337 22.31 141.55 21.9173C140.007 21.749 138.437 21.8612 136.978 22.2539V22.2259C134.762 21.3002 132.742 20.7392 130.302 21.9454C129.685 22.2539 129.096 22.7308 128.591 23.1796C127.834 23.8528 127.189 24.8065 126.235 25.2272C125.758 25.4236 125.225 25.4516 124.748 25.2553C124.243 25.0309 123.542 24.4979 123.262 23.993C123.037 23.5723 122.953 23.1515 123.233 22.9271C123.458 22.7308 123.794 22.843 124.075 22.843C124.299 22.871 124.524 22.8149 124.608 22.5625C124.692 22.282 124.524 22.1137 124.299 22.0295C123.879 21.8893 123.43 22.0295 123.149 22.3661C121.859 23.993 123.71 25.9285 124.916 26.8822C126.459 28.0883 128.507 28.8456 130.442 28.4529C130.442 28.481 130.414 28.509 130.414 28.5371C129.994 30.192 129.909 31.9592 128.423 33.0812C128.058 33.3336 127.665 33.53 127.245 33.5861C126.768 33.6422 125.73 33.2775 126.038 32.6324C126.179 32.3519 126.487 32.2958 126.74 32.2116C126.964 32.1275 127.132 31.9872 127.076 31.7348C127.048 31.4262 126.824 31.3421 126.571 31.3982C126.151 31.4543 125.786 31.7628 125.702 32.1836C125.365 33.6422 126.768 34.652 127.946 35.1288C130.274 36.0264 133.388 35.6337 135.043 33.8946C135.856 33.0251 136.389 31.9311 136.501 30.6128C136.726 27.5834 137.315 24.4979 140.653 23.5162C143.037 22.8991 145.617 24.4979 146.206 24.9467C149.657 27.6675 151.115 31.7628 150.19 35.4374C149.685 37.4009 148.507 39.0278 146.852 40.2059C139.839 37.9058 131.901 36.2508 123.851 38.0741C121.775 38.5509 119.727 39.2802 117.764 40.2059C117.708 40.2339 117.652 40.2339 117.623 40.262C117.427 40.3461 117.231 40.4303 117.006 40.5144C116.782 40.5986 116.53 40.6827 116.277 40.7669C115.744 40.9632 115.155 41.1596 114.51 41.3279C114.173 41.412 113.837 41.5242 113.472 41.6084C113.107 41.6925 112.743 41.7486 112.35 41.8328C111.593 42.0011 110.751 42.1133 109.938 42.2255C109.096 42.3377 108.227 42.4218 107.357 42.4499C106.488 42.4779 105.59 42.4499 104.749 42.3096C103.879 42.1974 103.066 41.973 102.308 41.6084C102.112 41.5242 101.944 41.4401 101.747 41.3279C101.579 41.2157 101.383 41.1315 101.214 41.0193C101.046 40.9071 100.878 40.7949 100.737 40.6827C100.541 40.5144 100.485 40.4303 100.345 40.29C99.8678 39.729 99.5873 39.0278 99.5032 38.3546C99.4751 38.018 99.5032 37.6814 99.5593 37.3728C99.5593 37.3167 99.5873 37.2606 99.6154 37.2045C99.5873 38.1021 100.232 38.8875 101.13 39.0278C102.112 39.1961 103.066 38.5229 103.234 37.5411C103.29 37.1204 103.206 36.7277 103.037 36.3911C103.037 36.363 103.009 36.3069 103.009 36.2789C102.925 36.1386 102.841 35.9703 102.701 35.802C102.561 35.6337 102.364 35.4935 102.112 35.3532C101.859 35.241 101.579 35.1569 101.242 35.1569C100.934 35.1569 100.569 35.241 100.261 35.3813C99.9239 35.5215 99.6154 35.7459 99.3349 36.0825C99.2788 36.1386 99.2227 36.2228 99.1666 36.2789C99.0824 36.3911 99.0544 36.4472 98.9983 36.5594C98.9422 36.6435 98.8861 36.7277 98.858 36.8399C98.8019 36.924 98.7739 37.0362 98.7178 37.1484C98.5775 37.5411 98.4934 37.9899 98.4934 38.4668C98.5214 39.3644 98.8019 40.3181 99.419 41.1035C99.5593 41.2998 99.7837 41.5523 99.9239 41.6645C100.12 41.8608 100.289 41.973 100.485 42.1413C100.878 42.4218 101.298 42.7023 101.747 42.8987C102.645 43.3194 103.598 43.5999 104.58 43.7401C105.562 43.8804 106.516 43.8804 107.469 43.8243C108.423 43.7682 109.321 43.6279 110.19 43.4596C111.06 43.2913 111.873 43.123 112.659 42.8706C113.051 42.7584 113.416 42.6462 113.781 42.534C113.865 42.506 113.921 42.4779 114.005 42.4499C112.799 43.2633 111.649 44.1609 110.583 45.1426C94.1737 53.6698 84.8611 30.3884 94.931 25.9285C96.1091 25.3955 97.4836 25.0589 98.7739 25.3394C99.952 25.5919 101.354 26.6297 101.354 27.9761C101.354 28.4529 100.737 29.603 100.092 29.3225C101.326 29.8554 102.729 29.3505 103.29 28.1724C103.711 27.2188 103.683 26.237 103.402 25.3394C103.234 24.8345 102.981 24.3577 102.645 23.9089C101.467 22.282 99.5032 21.3283 97.5116 21.2161C94.3701 21.0197 91.2004 22.7869 89.2369 25.3955C85.338 30.9213 86.9929 37.9338 91.3687 42.7584C95.9969 47.8635 102.561 49.6306 108.367 47.4427C105.758 50.416 103.991 53.754 103.094 57.2041C103.037 57.3444 102.981 57.5127 102.953 57.6529C102.673 58.6066 102.42 59.5603 102.252 60.4579C101.663 61.4957 100.99 62.4214 100.261 63.2629C99.0824 64.6373 97.708 65.6752 96.3055 66.4886C95.8847 66.713 96.1933 63.5995 96.2494 63.2348C96.4177 62.0848 96.6982 60.8506 96.4457 59.7005V59.6725V59.6444C96.1652 58.2139 94.903 56.3626 93.4444 56.0541C92.7151 55.9138 91.6492 55.9699 91.3687 56.8114C91.2846 57.0639 91.3407 57.3163 91.537 57.5127C91.6492 57.5968 91.7895 57.6529 91.9017 57.5127C92.0139 57.3724 91.9578 57.2602 91.8736 57.148C91.7895 57.0078 91.6212 56.8675 91.6492 56.6992C91.7053 56.2785 92.3505 56.4187 92.5749 56.6151C92.7712 56.7834 92.9115 57.0078 92.9956 57.2602C93.0237 57.3163 93.0237 57.4005 93.0517 57.4566V57.4846C93.1359 57.8493 93.1359 58.1859 93.0798 58.4944C92.9676 59.0554 92.7432 59.5603 92.5468 60.1213C92.2102 60.8786 91.8175 61.636 91.7334 62.4775C91.537 64.5251 92.6871 66.6008 94.7347 67.246C94.2298 67.4423 93.753 67.6387 93.2481 67.7789C90.7797 68.5082 87.8905 69.4339 85.8429 67.3862C83.0098 64.5812 81.9159 60.3457 78.2413 58.3542C76.362 57.3444 74.1741 56.9236 72.0703 57.12C71.5935 57.1761 71.1166 57.2322 70.6398 57.3724C70.1349 57.5127 69.658 57.7371 69.2373 57.9895C68.3116 58.5224 67.2457 59.5883 67.7226 60.7945C67.8628 61.1311 68.1994 61.3555 68.5641 61.3555C68.7885 61.3555 68.9568 61.2713 68.9568 60.9908C68.9568 60.7384 68.7885 60.6823 68.5921 60.6262C68.3677 60.5701 68.0872 60.5701 67.9189 60.3457C67.5823 59.8408 68.4238 59.392 68.8165 59.3639C70.7239 59.2798 72.1264 61.2152 73.1362 62.5616C73.4728 63.0104 73.8094 63.4312 74.1741 63.8519C76.1095 66.1801 78.7743 67.835 81.5512 68.9851C84.777 70.3315 88.9003 70.1912 92.4066 69.4058C92.3505 69.4619 92.2944 69.518 92.2383 69.5741C89.4613 72.7157 88.4515 77.2598 91.0041 80.7941C92.7712 83.0661 95.9689 84.3284 98.5775 82.7015C99.8117 81.888 100.709 80.3453 100.064 78.8867C99.6995 78.1293 98.7739 77.8208 97.9885 78.1574C98.8019 78.3257 98.8861 79.2513 98.5495 79.8404C98.2129 80.4014 97.5397 80.738 96.9226 80.8221C95.3237 81.0185 93.3603 79.8404 92.631 78.5501C91.0602 75.7731 92.2663 71.1169 95.2957 68.5363C96.1091 68.2277 96.8945 67.835 97.6799 67.3582C98.9983 66.5728 100.289 65.5349 101.411 64.2446C101.551 64.1044 101.663 63.9361 101.803 63.7958C100.99 75.0438 108.227 82.3088 114.903 85.1699C120.933 87.7785 130.05 86.5163 135.323 81.6636C140.737 76.7268 141.522 67.5826 137.371 61.636C137.006 61.1311 136.613 60.6262 136.193 60.1774C134.762 58.6627 132.995 57.4566 130.919 56.6992C123.626 54.0345 117.147 59.6444 117.147 59.6444C119.082 56.7834 121.887 55.3809 124.692 54.7357C125.309 54.6235 125.926 54.5674 126.543 54.5113C127.721 54.3991 128.928 54.4833 130.106 54.5674C132.181 54.6796 134.818 55.3248 136.417 53.5576C137.258 52.632 137.483 51.1173 136.641 50.0794C136.108 49.4343 135.323 48.9294 134.453 48.9294C133.668 48.9574 132.63 49.4343 132.63 50.388C132.63 51.0331 133.388 51.51 133.921 51.0892C134.369 50.7526 134.93 50.388 135.491 50.6124C136.305 50.949 136.529 51.8185 136.249 52.5478C135.547 54.3711 133.5 54.1747 131.677 53.8381C129.965 53.5015 128.282 53.3052 126.599 53.3052C125.618 53.2771 124.664 53.3052 123.682 53.4735C123.29 53.5296 122.897 53.6137 122.532 53.6979H122.504C120.905 54.0345 119.306 54.6516 118.072 55.6894C114.033 58.6066 112.855 63.5153 113.64 66.6569C115.155 72.8279 120.569 73.7536 120.569 73.7536C120.569 73.7536 119.447 73.2487 118.353 72.1267C117.147 70.9205 116.305 69.3497 116.137 67.6106C115.856 65.03 116.838 62.5336 118.549 60.7103C121.635 57.4566 126.768 56.9236 130.807 58.6908C132.153 59.2798 133.36 60.1213 134.341 61.2152C138.857 66.2923 138.24 74.4268 133.303 78.9147C129.376 82.5051 124.103 83.8515 118.914 82.5893C117.006 82.1405 115.408 81.5234 114.005 80.7099C112.434 79.8123 111.032 78.7464 109.798 77.5122C108.619 76.278 107.61 74.8194 106.796 73.2206C106.656 72.9121 106.516 72.6316 106.403 72.323C105.197 69.0692 104.777 65.563 104.636 63.0104C104.272 55.9699 108.704 47.6391 116.95 42.9828C116.782 43.123 116.586 43.2352 116.417 43.3755C114.314 44.8341 112.21 47.2464 111.621 51.1453C111.621 51.1734 111.621 51.1734 111.621 51.2014C111.537 51.7905 111.481 52.4076 111.452 53.0808C111.34 54.5394 111.2 56.2785 111.088 57.5127C111.032 57.9615 110.92 58.3822 110.667 58.7188C110.387 59.1115 109.405 59.6164 109.152 58.9712C109.04 58.6908 109.208 58.4103 109.321 58.1578C109.405 57.9334 109.433 57.7371 109.208 57.5688C108.956 57.4005 108.76 57.5127 108.619 57.709C108.367 58.0737 108.367 58.5505 108.619 58.8871C109.461 60.1213 111.172 59.7566 112.294 59.2237C112.967 58.8871 113.612 58.4103 114.173 57.8493C117.343 55.0443 117.539 51.8185 117.259 47.8915C117.091 45.2829 118.156 43.5718 119.727 42.3377C120.26 42.0572 120.793 41.8328 121.326 41.5803C120.877 43.0669 120.849 44.3853 121.55 45.1426C122.252 45.9 123.374 46.0402 124.019 46.9098C124.187 47.1342 124.271 47.3586 124.355 47.611C124.44 47.9476 124.524 48.3123 124.355 48.6208C124.271 48.7611 124.159 48.8452 123.991 48.7611C123.879 48.705 123.851 48.5367 123.823 48.4245C123.794 48.3403 123.738 48.2562 123.598 48.2562C123.458 48.2562 123.43 48.3684 123.43 48.4806C123.458 48.6769 123.57 48.8452 123.766 48.9013C124.159 49.0135 124.496 48.8172 124.748 48.5647C125.281 48.0037 125.449 47.0781 125.365 46.3207C125.281 45.4792 124.804 44.6658 124.299 43.9926C123.402 42.7584 122.196 41.8047 121.691 41.4401C123.794 40.5705 125.954 39.9815 127.778 39.5888C134.229 38.8875 140.596 40.3181 146.375 42.1974C147.132 42.5621 147.861 42.9828 148.478 43.4877C149.544 44.3011 150.386 45.4512 150.358 46.489C150.302 47.7793 149.881 49.0696 149.011 49.9953C148.619 50.416 147.889 50.977 148.254 51.6502C148.675 52.4356 149.544 51.9588 149.881 51.3417C150.779 49.7428 151.396 47.8915 150.666 45.5353C152.49 48.5086 151.929 51.8466 151.48 53.0527C150.863 54.7357 149.713 55.5772 148.927 56.026C148.17 56.4748 147.272 56.7834 146.375 56.8956C145.561 57.0078 142.7 57.12 142.728 55.7455C142.756 54.9321 144.215 54.6516 144.215 54.6516C145.589 54.2028 145.926 53.5015 145.954 52.9125C145.954 52.3515 145.673 51.9307 145.645 51.9027C145.673 51.9307 145.673 51.9588 145.673 51.9868C145.673 52.3795 145.309 52.632 144.944 52.7722C144.215 53.0247 143.626 52.4637 142.925 52.4917C142.532 52.5198 142.139 52.6881 141.803 52.9125C141.746 52.9686 141.69 52.9966 141.634 53.0527C141.578 53.1088 141.494 53.1649 141.438 53.221C140.961 53.6979 140.653 54.343 140.624 55.0723C140.596 55.8858 140.933 56.5309 141.466 57.0078C141.606 57.148 141.775 57.2602 141.943 57.3724C142.42 57.681 142.953 57.9054 143.486 58.0176C143.682 58.0737 143.906 58.1298 144.131 58.1578C146.403 58.5505 149.292 57.8493 151.255 54.9321C151.143 56.8956 151.059 58.3822 151.929 60.4579C152.77 62.5055 155.295 63.7117 157.37 64.0483C157.931 64.1324 158.745 64.0483 158.941 63.4031C158.997 63.2068 158.941 63.0104 158.773 62.8702C158.689 62.786 158.576 62.786 158.492 62.8982C158.408 63.0104 158.464 63.0946 158.52 63.1787C158.605 63.2909 158.717 63.3751 158.717 63.5153C158.689 63.8519 158.212 63.7117 158.015 63.6275C155.856 62.5336 155.379 60.1493 155.295 57.9334C155.182 55.1565 155.21 52.4637 154.257 49.827C153.303 47.2183 151.704 45.2548 150.751 44.217C150.498 43.9084 150.19 43.656 149.881 43.3755C149.993 43.4035 150.105 43.4596 150.218 43.4877C155.379 45.3951 160.568 47.4988 165.589 49.5465C165.757 49.6306 165.954 49.6867 166.122 49.7709C166.935 50.3038 167.721 50.8648 168.534 51.4539C170.89 53.221 172.742 55.4931 174.172 58.0737C175.996 61.3555 177.118 67.0777 173.106 69.3217C171.451 70.2754 169.348 69.9949 168.31 68.2277C167.581 66.9935 168.198 65.5349 168.843 64.4129C169.6 63.0665 168.282 61.4677 166.739 61.6921C164.551 62.0006 163.766 64.5812 163.99 66.4325C164.243 68.4802 165.673 70.079 167.412 71.1169C172.237 73.978 177.538 68.8729 177.454 64.0202C177.426 62.3372 176.949 60.4298 176.332 58.8871C175.21 56.1382 173.331 53.782 171.059 51.7624C176.725 54.0345 182.503 56.2785 188.309 58.1859C190.273 58.831 192.208 59.42 194.06 59.8969C193.807 59.981 193.555 60.0932 193.33 60.2054C191.76 60.8786 190.385 61.7762 189.207 62.786C188.029 63.7958 187.075 64.9178 186.318 66.0679C184.186 69.2656 182.335 73.6694 182.615 77.5683C182.84 80.5416 183.569 83.6271 185.168 86.1797C185.448 86.6565 185.757 87.1053 186.065 87.5541C187.019 88.9566 188.394 90.892 187.72 92.6592C187.58 93.0519 186.879 93.697 186.514 93.2202C186.346 93.0238 186.43 92.7433 186.458 92.4909C186.486 92.2945 186.458 92.0982 186.234 92.0421C185.981 91.9579 185.841 92.0982 185.757 92.2945C185.645 92.6592 185.729 93.0519 186.037 93.2763C187.019 94.0897 188.366 93.4446 189.179 92.7153C189.544 92.3787 189.908 91.986 190.189 91.5652C190.469 91.1725 190.694 90.7237 190.89 90.2749C191.76 88.3395 192.04 86.1236 191.675 84.0198C190.946 79.8965 187.272 77.5122 185.504 73.9499C184.214 71.3413 186.009 68.9009 187.468 66.7972C187.748 66.3764 188.085 65.9557 188.422 65.563C188.394 67.6948 189.992 69.4339 192.012 69.9107C192.826 70.1071 193.667 69.9668 194.508 69.8827C195.098 69.8827 195.687 69.7985 196.22 69.8827C196.556 69.9388 196.865 70.051 197.173 70.2193C197.173 70.2193 197.201 70.2193 197.201 70.2473C197.257 70.2754 197.313 70.3034 197.37 70.3595C197.566 70.5278 197.762 70.7242 197.846 70.9766C197.959 71.2571 197.903 71.9023 197.482 71.8181C197.313 71.7901 197.229 71.5937 197.117 71.4815C197.033 71.3693 196.949 71.2852 196.781 71.3413C196.612 71.3974 196.612 71.5657 196.668 71.6779C196.781 71.9303 197.005 72.0706 197.257 72.0706C198.155 72.0425 198.548 71.0608 198.632 70.3315C198.8 68.8448 197.398 67.0216 196.135 66.3203C195.126 65.7032 193.863 65.591 192.741 65.3947C192.377 65.3386 189.319 64.6373 189.684 64.3007C190.862 63.2068 192.321 62.2531 193.976 61.5518C194.957 61.1311 196.023 60.8225 197.145 60.5701C202.587 61.7482 207.552 62.1689 212.18 61.8323C204.606 64.7776 201.128 72.6596 203.428 80.766C205.196 87.0212 210.245 92.1543 217.005 91.7896C220.258 91.5091 223.428 89.7701 224.943 86.9931C225.896 85.226 226.149 83.0661 225.392 81.2148C225.195 80.7099 224.915 80.2331 224.578 79.8404C223.961 79.1111 223.148 78.5781 222.11 78.4098C220.791 78.2696 219.613 79.1672 219.417 80.5136C219.529 79.8123 220.819 79.8965 221.212 80.1489C222.334 80.8782 222.474 82.5893 222.082 83.7393C221.633 84.9735 220.595 85.9553 219.529 86.6846C209.796 93.2482 193.639 69.7985 215.153 61.4957C215.518 61.4396 215.883 61.3835 216.247 61.3274C215.995 61.4957 215.742 61.6921 215.49 61.8604C215.181 62.1128 214.901 62.3653 214.592 62.6458C213.975 63.1787 213.358 63.7678 212.769 64.4129C212.18 65.0581 211.563 65.7593 211.03 66.5167C210.497 67.274 209.992 68.1155 209.571 69.0131C209.179 69.9107 208.898 70.8644 208.786 71.8462C208.73 72.323 208.73 72.8279 208.758 73.3048C208.786 73.5572 208.786 73.7816 208.842 74.034C208.87 74.2304 208.954 74.5389 209.066 74.7633C209.431 75.689 210.076 76.4463 210.834 76.9512C211.226 77.2037 211.619 77.372 212.068 77.4561C212.18 77.4842 212.292 77.4842 212.376 77.5122C212.489 77.5122 212.573 77.5403 212.685 77.5403C212.797 77.5403 212.881 77.5403 213.021 77.5403C213.106 77.5403 213.19 77.5122 213.274 77.5122C213.695 77.4281 214.059 77.2878 214.34 77.0915C214.648 76.8951 214.873 76.6427 215.041 76.3622C215.209 76.0817 215.322 75.8012 215.35 75.5207C215.378 75.2402 215.35 74.9877 215.265 74.7914C215.209 74.567 215.097 74.4268 215.013 74.2865C214.985 74.2584 214.957 74.2304 214.929 74.2024C214.733 73.8658 214.452 73.5853 214.059 73.417C213.134 73.0243 212.068 73.4731 211.675 74.3987C211.31 75.2402 211.647 76.1939 212.432 76.6427C212.376 76.6427 212.32 76.6146 212.264 76.5866C211.956 76.4744 211.675 76.3341 211.395 76.1097C210.862 75.689 210.413 75.0719 210.188 74.3707C210.132 74.1743 210.104 74.0901 210.076 73.8377C210.048 73.6694 210.048 73.445 210.02 73.2487C209.992 73.0523 210.02 72.8279 210.02 72.6316C210.02 72.4352 210.048 72.2108 210.076 72.0145C210.188 71.201 210.441 70.3595 210.806 69.5741C211.142 68.7887 211.591 68.0033 212.096 67.274C212.601 66.5447 213.106 65.8435 213.667 65.1983C214.2 64.5532 214.761 63.908 215.294 63.347C215.574 63.0665 215.826 62.786 216.079 62.5336C216.359 62.2811 216.612 62.0567 216.864 61.8043C217.201 61.4957 217.538 61.2152 217.846 60.9628C221.408 60.1774 224.746 58.8591 227.944 57.0358C231.899 54.7638 235.265 51.8466 238.014 48.2562C240.118 47.5269 242.306 47.611 244.297 48.5367C247.747 50.1355 249.991 53.8662 249.907 58.27C249.879 58.9993 249.486 62.0287 247.523 63.4873C244.662 65.4508 241.885 63.9361 239.388 62.197C238.323 61.4396 237.116 61.1591 235.938 61.2433C233.554 61.4116 231.254 63.5714 230.497 65.9557C230.104 67.1338 230.02 68.8729 231.366 69.5461C231.759 69.7424 232.208 69.6583 232.544 69.3778C232.713 69.2095 232.825 68.9851 232.6 68.7607C232.404 68.5643 232.208 68.6204 232.011 68.7326C231.759 68.8729 231.506 69.0973 231.226 69.0131C230.525 68.8448 230.917 67.807 231.254 67.4704C231.563 67.1618 231.955 66.9935 232.376 66.8813C234.199 66.4325 235.602 67.4984 237.173 68.1997C237.201 68.1997 237.229 68.2277 237.257 68.2277C235.742 69.49 235.013 71.5657 234.957 73.5011C234.929 75.0438 235.237 77.7086 237.313 77.7366C237.734 77.7366 238.126 77.4842 238.295 77.0634C238.379 76.839 238.379 76.5866 238.07 76.5024C237.818 76.3902 237.649 76.5305 237.509 76.7268C237.341 76.9512 237.229 77.2598 236.92 77.3159C236.583 77.4 236.275 77.0354 236.107 76.6146C235.882 76.1097 235.91 75.2121 236.051 74.6792C236.191 74.1743 236.555 73.7816 237.004 73.5572C237.93 73.0804 239.08 73.1645 240.09 73.0243C240.763 72.9121 241.492 72.7438 242.137 72.4633C244.634 71.3413 245.475 69.4058 246.149 67.1338L246.12 67.1057C247.327 66.2081 248.421 65.0581 249.262 63.7678C251.338 60.5981 251.506 56.5309 250.047 53.0808L249.879 53.0527Z" fill="#FFF2EC"/>
<path d="M196.161 25.2784C198.994 25.4187 201.546 26.8773 203.005 29.3176C204.464 31.8421 204.379 35.0959 202.725 37.3399C200.312 40.5656 194.646 41.6315 192.542 37.5362C192.402 37.2277 192.262 36.9472 192.178 36.6386C191.925 35.713 192.066 34.7873 192.879 34.0861C194.029 33.1043 196.273 34.8154 196.273 34.8154C198.629 36.1618 200.032 35.7971 200.845 35.0959C201.631 34.4227 201.883 33.4409 201.883 33.3848C201.883 33.4409 201.827 33.469 201.799 33.5251C201.238 34.0019 200.424 33.8336 199.779 33.469C198.545 32.7677 198.573 31.253 197.647 30.2993C197.115 29.7664 196.385 29.4298 195.684 29.2615C195.544 29.2334 195.403 29.2054 195.263 29.1773C195.095 29.1493 194.955 29.1212 194.786 29.1212C193.524 29.0371 192.234 29.4017 191.196 30.2993C190.046 31.2811 189.541 32.5433 189.513 33.8897C189.401 37.4801 192.037 41.0986 195.628 41.7157C197.311 41.9962 199.106 41.7437 200.621 41.0425C201.126 40.79 201.603 40.5095 202.051 40.1449C203.79 38.7704 204.94 36.6667 205.165 34.4507C205.389 32.2348 204.772 29.9347 203.286 28.0273C199.583 23.5393 192.991 23.5113 188.98 27.5504C186.427 30.2152 185.362 34.3105 186.624 37.8167C186.624 37.8448 186.82 38.2936 186.764 38.0692C186.708 37.7606 186.624 37.4521 186.568 37.1435C185.446 31.1408 189.709 25.054 196.133 25.2784H196.161Z" fill="#FFF2EC"/>
<path d="M366.929 68.8762C366.648 69.5775 366.648 70.3629 366.761 71.0922C366.789 71.2324 366.817 71.3727 366.845 71.5129C366.873 71.6532 366.929 71.8215 366.985 71.9617C367.406 73.1679 368.275 74.1777 369.509 74.7948C370.856 75.468 372.23 75.4119 373.465 74.907C376.802 73.5886 379.075 69.7458 378.205 66.1834C377.812 64.5285 376.859 62.9857 375.596 61.8918C375.176 61.5271 374.699 61.2186 374.222 60.9381C372.286 59.9003 369.874 59.6759 367.742 60.3491C365.639 61.0223 363.759 62.5089 362.609 64.6407C359.972 69.8299 362.581 75.8887 367.883 77.9363C371.361 79.1986 375.512 78.5534 378.233 76.0009C378.261 76.0009 378.598 75.6363 378.401 75.7765C378.149 75.9448 377.896 76.1412 377.644 76.3095C372.567 79.7315 365.302 78.2729 362.974 72.2703C361.992 69.6055 362.301 66.6883 363.956 64.3882C365.695 62.0601 368.696 60.8259 371.417 61.471C375.344 62.3967 378.57 67.1652 375.652 70.7275C375.456 70.98 375.204 71.2044 374.951 71.4007C374.194 71.9898 373.296 72.2422 372.343 71.7654C370.996 71.0922 371.669 68.3713 371.669 68.3713C371.978 65.6785 371.08 64.5285 370.099 64.0516C369.173 63.6028 368.191 63.7711 368.107 63.7711C368.163 63.7711 368.219 63.7711 368.275 63.7992C368.92 64.1077 369.117 64.9212 369.033 65.6505C368.864 67.053 367.462 67.642 366.985 68.8762H366.929Z" fill="#FFF2EC"/>
<path d="M394.083 71.1485C393.494 73.8973 389.651 82.0318 381.882 84.4441C376.215 86.2113 371.082 85.7905 366.819 83.3221C367.071 83.4343 367.324 83.5746 367.576 83.6868C367.744 83.7429 367.885 83.827 368.025 83.8831C368.305 83.9953 368.586 84.1356 368.923 84.2197L370.718 84.7246C371.531 84.8929 372.401 85.0612 373.27 85.1173C373.775 85.1734 374.308 85.1734 374.841 85.1734C376.3 85.1734 377.73 85.0051 379.105 84.6685C381.18 84.1917 383.032 83.4904 384.602 82.5648C386.342 81.583 387.94 80.3769 389.315 79.0024C390.689 77.5719 391.839 75.945 392.737 74.1217C393.466 72.607 394.027 70.9802 394.476 69.185C394.392 69.8301 394.28 70.4753 394.139 71.1485H394.083ZM314.87 51.8221C316.189 50.2513 317.226 48.5683 317.984 46.745C318.713 44.9218 319.162 42.9863 319.386 40.9948C319.583 39.1996 319.498 37.2081 319.106 35.1324C318.853 33.7299 318.433 32.3554 317.872 31.0371C317.675 30.5602 317.423 30.0834 317.198 29.6346C316.806 28.8492 316.329 28.1479 315.824 27.4467L314.674 26.0161C314.449 25.7637 314.225 25.5393 314.001 25.3429C313.888 25.2307 313.776 25.1185 313.636 25.0063C313.44 24.81 313.215 24.6417 312.991 24.4453C316.974 27.3345 319.386 31.9066 320.031 37.7971C320.929 45.9035 315.01 52.6636 312.71 54.2905C312.205 54.6551 311.729 54.9636 311.224 55.2722C311.196 55.2722 311.168 55.3003 311.168 55.3003C312.598 54.2063 313.832 53.0563 314.898 51.8501L314.87 51.8221ZM428.192 57.8528C427.771 57.6003 427.295 57.404 426.79 57.2357C426.313 57.0954 425.836 57.0393 425.359 56.9832C423.227 56.7869 421.067 57.2076 419.188 58.2174C415.514 60.209 414.392 64.4445 411.587 67.2495C409.539 69.2972 406.65 68.3715 404.181 67.6422C403.704 67.502 403.2 67.3337 402.695 67.1093C404.714 66.4641 405.864 64.4165 405.696 62.3408C405.612 61.5273 405.219 60.77 404.883 59.9846C404.686 59.4236 404.462 58.8906 404.35 58.3577C404.322 58.0211 404.322 57.6845 404.378 57.3479V57.3198C404.406 57.2637 404.406 57.1796 404.434 57.1235C404.518 56.871 404.658 56.6466 404.855 56.4783C405.079 56.31 405.724 56.1417 405.78 56.5625C405.808 56.7308 405.668 56.871 405.556 57.0113C405.472 57.1235 405.416 57.2357 405.528 57.3759C405.64 57.5162 405.78 57.4881 405.892 57.3759C406.089 57.2076 406.173 56.9271 406.061 56.6747C405.752 55.8332 404.714 55.7771 403.985 55.9173C402.526 56.2259 401.236 58.1333 400.984 59.5638C400.731 60.7139 401.012 61.9481 401.18 63.0981C401.236 63.4628 401.545 66.5763 401.124 66.3519C399.721 65.5665 398.347 64.5006 397.169 63.1262C396.44 62.2847 395.766 61.331 395.177 60.3212C394.981 59.3955 394.757 58.4699 394.476 57.5162C394.448 57.4601 394.448 57.404 394.42 57.3479C393.522 53.6173 391.615 50.1952 389.09 47.306C394.897 49.4939 401.432 47.7268 406.061 42.6217C410.436 37.7971 412.091 30.7846 408.192 25.2588C406.229 22.6501 403.087 20.883 399.918 21.0794C397.926 21.1916 395.963 22.1452 394.785 23.7721C394.476 24.2209 394.224 24.6978 394.055 25.2027C393.747 26.1003 393.747 27.082 394.139 28.0357C394.7 29.2138 396.103 29.7187 397.337 29.1858C396.692 29.4663 396.075 28.3162 396.075 27.8394C396.075 26.493 397.477 25.4551 398.655 25.2027C399.946 24.9222 401.32 25.2588 402.498 25.7917C412.54 30.2517 403.256 53.5331 386.846 45.0059C385.781 44.0242 384.63 43.1266 383.424 42.3131C383.508 42.3412 383.565 42.3692 383.621 42.3973C383.985 42.5095 384.378 42.6217 384.743 42.7339C385.528 42.9863 386.342 43.1827 387.211 43.3229C388.081 43.4912 388.978 43.6315 389.932 43.6876C390.886 43.7437 391.839 43.7156 392.821 43.6034C393.803 43.4632 394.757 43.1827 395.654 42.7619C396.103 42.5656 396.524 42.2851 396.916 42.0046C397.113 41.8363 397.281 41.7241 397.477 41.5277C397.618 41.3875 397.842 41.1631 397.982 40.9667C398.599 40.1813 398.88 39.2276 398.908 38.3301C398.908 37.8813 398.852 37.4325 398.684 37.0117C398.655 36.8995 398.599 36.8154 398.571 36.7032C398.515 36.619 398.487 36.5068 398.431 36.4227C398.375 36.3385 398.347 36.2544 398.263 36.1422C398.207 36.0861 398.151 36.0019 398.094 35.9458C397.786 35.6373 397.505 35.4129 397.169 35.2446C396.832 35.1043 396.496 35.0482 396.187 35.0202C395.85 35.0202 395.57 35.1043 395.318 35.2165C395.065 35.3568 394.869 35.497 394.728 35.6653C394.588 35.8336 394.504 36.0019 394.42 36.1422C394.42 36.1983 394.392 36.2263 394.392 36.2544C394.196 36.591 394.111 37.0117 394.196 37.4044C394.364 38.3862 395.289 39.0593 396.299 38.891C397.197 38.7508 397.842 37.9374 397.814 37.0678C397.842 37.1239 397.842 37.18 397.87 37.2361C397.954 37.5447 397.982 37.8813 397.926 38.2179C397.842 38.891 397.562 39.5923 397.085 40.1533C396.944 40.2935 396.888 40.3777 396.692 40.546C396.552 40.6582 396.383 40.7704 396.215 40.8826C396.047 41.0228 395.879 41.107 395.682 41.1911C395.514 41.3033 395.318 41.3875 395.149 41.4716C394.392 41.8082 393.55 42.0326 392.681 42.1729C391.811 42.3131 390.942 42.3412 390.072 42.3131C389.203 42.2851 388.333 42.2009 387.492 42.0887C386.65 41.9765 385.809 41.8643 385.079 41.696C384.715 41.6119 384.322 41.5558 383.985 41.4716C383.621 41.3875 383.284 41.2753 382.976 41.1911C382.302 41.0228 381.713 40.8265 381.208 40.6301C380.928 40.546 380.703 40.4618 380.451 40.3777C380.227 40.2935 380.03 40.2094 379.834 40.1252C379.806 40.0972 379.75 40.0972 379.722 40.0691C377.73 39.1154 375.683 38.3862 373.607 37.9093C365.557 36.0861 357.646 37.741 350.606 40.0411C348.923 38.863 347.745 37.2642 347.268 35.2726C346.342 31.5981 347.801 27.5028 351.251 24.7819C351.84 24.3331 354.421 22.7343 356.805 23.3514C360.143 24.3331 360.704 27.4186 360.956 30.448C361.069 31.7383 361.601 32.8603 362.415 33.7299C364.07 35.469 367.183 35.8897 369.512 34.9641C370.662 34.5153 372.064 33.4774 371.756 32.0188C371.671 31.5981 371.307 31.2895 370.886 31.2334C370.634 31.2054 370.409 31.2615 370.381 31.57C370.353 31.8505 370.521 31.9627 370.718 32.0469C370.97 32.1591 371.307 32.2152 371.419 32.4676C371.728 33.1128 370.69 33.4774 370.213 33.4213C369.792 33.3652 369.399 33.1689 369.035 32.9164C367.548 31.7944 367.464 30.0273 367.043 28.3723C367.043 28.3443 367.015 28.3162 367.015 28.2882C368.951 28.6809 371.026 27.9235 372.569 26.7174C373.775 25.7637 375.626 23.8282 374.336 22.2013C374.056 21.8647 373.607 21.7245 373.186 21.8647C372.934 21.9489 372.793 22.1172 372.878 22.3977C372.962 22.6501 373.158 22.7062 373.41 22.6782C373.691 22.6501 374 22.566 374.252 22.7623C374.533 22.9867 374.448 23.4355 374.224 23.8282C373.971 24.3331 373.27 24.8661 372.765 25.0905C372.288 25.2868 371.756 25.2588 371.279 25.0624C370.297 24.6697 369.68 23.688 368.894 23.0148C368.39 22.566 367.801 22.0891 367.183 21.7806C364.743 20.5745 362.723 21.1355 360.508 22.0611V22.0891C359.049 21.7245 357.478 21.6123 355.935 21.7526C352.177 22.1452 348.923 24.5856 347.156 27.8955C345.893 30.3078 345.501 32.9725 346.146 35.497C346.651 37.4886 347.745 39.1435 349.288 40.4338C348.446 40.7143 347.633 41.0228 346.847 41.3033C344.21 42.2851 341.574 43.2949 338.937 44.3327C339.021 44.2766 339.077 44.1925 339.161 44.1364C341.125 42.3412 343.117 39.8167 343.341 36.9837C343.397 36.2824 343.341 35.4409 343.117 34.7677C342.527 32.8042 339.694 31.4298 338.124 33.225C337.563 33.8701 337.198 34.7116 337.366 35.5531C337.507 36.3385 338.18 37.2642 339.105 37.0959C339.751 36.9837 340.087 36.1702 339.582 35.7214C339.161 35.3568 338.713 34.8519 338.853 34.2628C339.049 33.4213 339.863 33.0286 340.648 33.1969C342.556 33.5896 342.864 36.03 342.556 37.6008C342.331 38.8349 341.854 39.985 341.153 41.0228C340.396 42.0887 339.61 43.0424 338.657 43.912C338.292 44.2486 337.899 44.5852 337.507 44.8937C336.328 45.3706 335.122 45.8474 333.972 46.3243C333.636 46.2962 333.327 46.2121 333.019 46.0718C330.971 45.034 330.971 42.9583 331.167 40.9667C331.251 40.1252 331.027 39.3118 330.606 38.6666C329.737 37.3203 327.773 36.7032 326.146 37.0117C325.333 37.18 324.295 37.6569 324.351 38.6386C324.351 38.9191 324.547 39.1715 324.828 39.2557C324.968 39.3118 325.136 39.2837 325.193 39.0874C325.249 38.9191 325.165 38.8069 325.024 38.7227C324.884 38.6386 324.66 38.5545 324.604 38.3581C324.491 37.9093 325.193 37.7971 325.501 37.8813C325.754 37.9654 326.006 38.1337 326.202 38.3581C327.044 39.2557 326.876 40.4338 326.96 41.5558C327.044 42.7339 327.521 43.8839 328.278 44.7815C329.232 45.9035 330.69 46.6609 332.289 46.9975C331.981 47.1097 331.7 47.2499 331.392 47.3621C325.726 49.6622 319.919 51.9904 314.085 54.1222C319.106 49.55 321.041 43.1827 321.013 37.9935C320.985 31.4298 316.189 23.5758 309.653 20.6586C302.977 17.6853 294.253 20.5745 290.467 26.7735C290.13 27.3064 289.85 27.8674 289.597 28.4565C288.756 30.3639 288.391 32.4957 288.531 34.6836C289.008 42.4534 296.75 46.156 296.75 46.156C293.356 45.5389 290.944 43.4912 289.233 41.1911C288.896 40.6582 288.559 40.1252 288.279 39.5923C287.718 38.5264 287.297 37.4044 286.904 36.3105C286.203 34.347 285.698 31.7103 283.454 30.9249C282.276 30.5322 280.789 30.9249 280.172 32.103C279.78 32.8603 279.639 33.7579 280.004 34.5714C280.341 35.2726 281.21 36.03 282.052 35.6653C282.641 35.4129 282.781 34.5153 282.192 34.2067C281.715 33.9262 281.154 33.5616 281.126 32.9445C281.098 32.0749 281.799 31.5139 282.613 31.4859C284.576 31.4017 285.193 33.3652 285.614 35.1604C285.979 36.8434 286.484 38.4703 287.129 40.013C287.493 40.9387 287.914 41.8082 288.447 42.6217C288.672 42.9583 288.896 43.2949 289.12 43.6034C290.074 44.9218 291.252 46.156 292.711 46.8572C297.002 49.3817 301.967 48.5122 304.548 46.5487C309.597 42.6778 308.278 37.3764 308.278 37.3764C308.278 37.3764 308.25 38.6105 307.661 40.0691C307.044 41.668 305.922 43.0705 304.408 43.912C302.164 45.1742 299.471 45.2864 297.115 44.4449C292.907 42.9022 290.355 38.4142 290.383 34.0104C290.383 32.5518 290.691 31.0932 291.308 29.7748C294.169 23.6038 301.855 20.9391 307.97 23.6599C312.823 25.8198 316.189 30.1395 317.086 35.3848C317.423 37.2922 317.507 39.0313 317.311 40.6582C317.114 42.4534 316.693 44.1644 316.048 45.7913C315.375 47.3902 314.449 48.8768 313.299 50.2513C311.224 52.6636 308.419 54.7673 304.688 56.7027L304.464 56.8149C304.323 56.871 304.211 56.9552 304.127 56.9832L302.192 57.8247C301.939 57.9369 301.687 57.993 301.434 58.0772C301.322 58.1052 301.238 58.1333 301.154 58.1613C295.712 59.4236 290.747 59.9004 286.175 59.6199C288.111 59.2553 290.214 58.3016 292.122 56.3661L292.15 56.3381C292.57 55.9173 292.991 55.4405 293.384 54.9076C294.338 53.8136 295.46 52.4672 296.273 51.5696C296.554 51.233 296.918 50.9806 297.311 50.8403C297.76 50.7001 298.854 50.8403 298.685 51.5416C298.601 51.8221 298.293 51.9623 298.068 52.1026C297.872 52.2428 297.732 52.3831 297.816 52.6355C297.928 52.916 298.152 52.9441 298.377 52.8599C298.798 52.7197 299.078 52.327 299.078 51.9062C299.106 50.4196 297.535 49.6903 296.301 49.4939C295.544 49.3537 294.758 49.3817 293.973 49.4939C289.737 49.9147 287.718 52.4111 285.614 55.7491C284.24 57.965 282.36 58.7223 280.341 58.7784C280.088 58.7504 279.808 58.6943 279.555 58.6382C279.247 58.554 278.966 58.4979 278.658 58.4138C279.864 57.4881 280.649 56.4222 280.537 55.4124C280.425 54.3746 279.583 53.6173 279.583 52.5514C279.583 52.2709 279.639 52.0465 279.724 51.794C279.836 51.4855 280.004 51.1208 280.313 50.9806C280.453 50.9245 280.621 50.9245 280.677 51.0647C280.733 51.1769 280.677 51.3172 280.621 51.4294C280.593 51.5416 280.593 51.6257 280.705 51.6818C280.818 51.766 280.902 51.6818 280.958 51.5977C281.042 51.4294 281.042 51.233 280.93 51.0647C280.677 50.7562 280.313 50.7001 279.948 50.7842C279.163 50.9245 278.517 51.5696 278.125 52.2428C277.704 52.9721 277.62 53.8978 277.62 54.7393C277.62 56.1978 278.013 57.6284 278.209 58.2735C275.628 57.5162 273.16 56.4783 270.776 55.132C266.708 52.8038 263.314 49.7183 260.622 45.8755C260.565 45.5108 260.537 45.1181 260.509 44.7535C260.453 43.4351 260.762 42.0046 261.603 41.3875C262.613 40.6021 263.875 40.0691 265.138 40.1533C265.727 40.1813 266.596 40.3777 266.877 39.6484C267.185 38.8069 266.288 38.4703 265.586 38.6105C263.791 38.9471 261.968 39.6764 260.65 41.7802C261.744 38.4703 264.661 36.7312 265.867 36.2824C267.55 35.6653 268.924 36.0019 269.794 36.3105C270.635 36.591 271.421 37.0959 272.122 37.713C272.711 38.274 274.675 40.3777 273.609 41.2472C272.992 41.7521 271.813 40.8265 271.813 40.8265C270.579 40.0691 269.822 40.2655 269.373 40.6301C268.952 40.9667 268.812 41.4997 268.784 41.5277C268.784 41.4997 268.812 41.4716 268.84 41.4436C269.149 41.1911 269.569 41.3033 269.906 41.4997C270.551 41.8924 270.523 42.7058 271 43.2107C271.281 43.4912 271.645 43.6876 272.038 43.7998C272.122 43.8278 272.178 43.8278 272.262 43.8559C272.346 43.8839 272.431 43.8839 272.515 43.8839C273.188 43.94 273.889 43.7717 274.45 43.2949C275.067 42.79 275.348 42.1168 275.404 41.4155C275.404 41.2192 275.404 41.0228 275.376 40.8265C275.32 40.2655 275.151 39.7045 274.871 39.2276C274.787 39.0313 274.675 38.8349 274.562 38.6386C273.384 36.6471 271 34.8799 267.494 35.2726C269.065 34.0945 270.243 33.1689 271.281 31.2054C272.29 29.2419 271.589 26.521 270.495 24.7258C270.187 24.249 269.626 23.688 268.98 23.9404C268.812 24.0246 268.672 24.1929 268.7 24.3892C268.7 24.5014 268.756 24.5856 268.896 24.5856C269.037 24.5856 269.065 24.5014 269.093 24.3892C269.121 24.277 269.121 24.1087 269.233 24.0246C269.513 23.8282 269.71 24.277 269.766 24.5014C270.327 26.8576 268.812 28.765 267.185 30.2517C265.138 32.131 263.09 33.8701 261.687 36.2824C260.313 38.6947 259.864 41.1911 259.668 42.5936C259.584 43.1546 259.584 43.7437 259.612 44.3327C257.227 40.546 255.432 36.0861 254.254 31.009C254.058 29.9712 253.918 28.9053 253.805 27.8394C253.581 25.5673 253.861 23.2111 254.675 20.8269C255.432 18.5829 257.564 15.245 260.369 15.245C260.762 15.245 261.154 15.3011 261.547 15.4413C262.725 15.806 263.679 16.956 263.258 18.3585C262.978 19.2561 261.968 19.5927 260.986 19.8452C260.257 20.0135 259.696 20.5745 259.528 21.3318C259.331 22.1733 259.64 23.0428 260.285 23.6038C260.818 24.0246 261.435 24.249 262.108 24.249C263.539 24.249 264.801 23.3233 265.474 22.5379C266.596 21.2196 266.961 19.3683 266.54 17.3487C265.979 14.712 263.679 13.001 260.678 13.001C258.77 13.001 256.863 13.7303 255.629 14.9364C254.619 15.8901 253.665 17.2646 252.992 18.6951C250.439 24.1368 251.73 30.7566 253.244 35.3568C253.413 35.8617 253.609 36.3666 253.805 36.8715C255.068 40.4899 256.666 43.7437 258.63 46.6328C256.695 46.2682 254.759 46.4926 252.936 47.3341C250.552 48.428 248.728 50.4196 247.662 52.916C246.204 56.3661 246.372 60.4334 248.448 63.603C249.289 64.8933 250.383 66.0434 251.589 66.941L251.561 66.969C252.235 69.2691 253.076 71.2046 255.573 72.2985C256.19 72.579 256.947 72.7473 257.62 72.8595C258.63 73.0278 259.78 72.9156 260.706 73.3924C261.154 73.6449 261.519 74.0095 261.659 74.5144C261.828 75.0474 261.828 75.945 261.603 76.4499C261.435 76.8706 261.154 77.2353 260.79 77.1511C260.481 77.095 260.369 76.7865 260.201 76.5621C260.061 76.3657 259.892 76.2255 259.64 76.3377C259.359 76.4499 259.331 76.6743 259.415 76.8987C259.584 77.2914 259.976 77.5719 260.397 77.5719C262.473 77.5438 262.809 74.8791 262.753 73.3363C262.697 71.4009 261.996 69.2972 260.453 68.063C260.481 68.063 260.509 68.0349 260.537 68.0349C262.108 67.3056 263.511 66.2397 265.334 66.7166C265.755 66.8288 266.175 66.9971 266.456 67.3056C266.793 67.6422 267.185 68.6801 266.484 68.8484C266.203 68.9325 265.951 68.7081 265.699 68.5679C265.502 68.4557 265.278 68.3996 265.11 68.5959C264.885 68.8203 264.997 69.0447 265.166 69.213C265.474 69.5216 265.951 69.5777 266.344 69.3813C267.69 68.7081 267.578 66.9971 267.213 65.7909C266.456 63.4067 264.156 61.2468 261.772 61.0785C260.593 60.9944 259.387 61.2749 258.321 62.0322C255.825 63.7713 253.076 65.286 250.187 63.3225C248.195 61.8639 247.803 58.8626 247.803 58.1052C247.719 53.7014 249.963 49.9988 253.413 48.3719C255.404 47.4463 257.564 47.3902 259.696 48.0914C262.445 51.6818 265.811 54.6271 269.766 56.871C272.935 58.6943 276.301 59.9846 279.864 60.798C280.172 61.0505 280.509 61.331 280.846 61.6395C281.098 61.8639 281.35 62.1164 281.631 62.3688C281.883 62.6213 282.136 62.9018 282.416 63.1823C282.949 63.7152 283.51 64.3884 284.043 65.0336C284.576 65.6787 285.109 66.38 285.614 67.1093C286.119 67.8386 286.54 68.5959 286.904 69.4094C287.269 70.1948 287.521 71.0363 287.634 71.8497C287.662 72.0461 287.69 72.2705 287.69 72.4668C287.69 72.6631 287.718 72.8875 287.69 73.0839C287.662 73.2802 287.662 73.5046 287.634 73.6729C287.606 73.9254 287.578 74.0095 287.521 74.2059C287.297 74.9071 286.848 75.5242 286.315 75.945C286.035 76.1694 285.754 76.3096 285.446 76.4218C285.39 76.4499 285.334 76.4499 285.277 76.4779C286.035 76.0291 286.371 75.0754 286.035 74.2339C285.642 73.3083 284.576 72.8595 283.651 73.2522C283.258 73.4205 282.977 73.701 282.781 74.0376C282.753 74.0656 282.725 74.0937 282.697 74.1217C282.613 74.262 282.501 74.4303 282.444 74.6266C282.388 74.823 282.36 75.0754 282.36 75.3559C282.388 75.6364 282.501 75.9169 282.669 76.1974C282.837 76.4499 283.09 76.7304 283.37 76.9267C283.679 77.1231 284.015 77.2633 284.436 77.3475C284.52 77.3475 284.604 77.3755 284.688 77.3755C284.829 77.4036 284.913 77.3755 285.025 77.3755C285.137 77.3755 285.221 77.3755 285.334 77.3475C285.446 77.3475 285.558 77.3194 285.642 77.2914C286.063 77.2072 286.484 77.0109 286.876 76.7865C287.634 76.2816 288.279 75.5242 288.643 74.5986C288.728 74.3742 288.812 74.0656 288.868 73.8693C288.924 73.5888 288.924 73.3924 288.952 73.14C289.008 72.6631 289.008 72.1582 288.924 71.6814C288.812 70.6997 288.531 69.746 288.139 68.8484C287.746 67.9508 287.241 67.1373 286.68 66.3519C286.147 65.5665 285.53 64.8933 284.941 64.2482C284.352 63.603 283.735 63.014 283.118 62.481C282.809 62.2005 282.529 61.9481 282.22 61.6956C281.968 61.4993 281.715 61.331 281.463 61.1627C281.827 61.2188 282.192 61.2749 282.557 61.331C304.043 69.6057 287.914 93.0554 278.181 86.5198C277.115 85.7905 276.077 84.8088 275.628 83.5746C275.208 82.4245 275.348 80.7135 276.498 79.9842C276.891 79.7317 278.209 79.6476 278.321 80.3488C278.125 79.0024 276.947 78.1048 275.628 78.2451C274.59 78.4134 273.777 78.9463 273.16 79.6756C272.823 80.0964 272.543 80.5452 272.346 81.0501C271.589 82.9294 271.842 85.0893 272.795 86.8284C274.31 89.6053 277.48 91.3444 280.733 91.6249C287.493 91.9895 292.542 86.8564 294.31 80.6013C296.582 72.4949 293.131 64.6128 285.558 61.6676C290.186 62.0042 295.179 61.5834 300.593 60.4053C301.715 60.6297 302.781 60.9663 303.762 61.3871C305.445 62.0883 306.876 63.042 308.054 64.136C308.419 64.4726 305.361 65.1458 304.997 65.2299C303.875 65.4263 302.584 65.5385 301.603 66.1556C300.34 66.8568 298.938 68.652 299.106 70.1667C299.19 70.9241 299.583 71.8778 300.481 71.9058C300.733 71.9058 300.985 71.7656 301.07 71.5131C301.126 71.3729 301.126 71.2326 300.957 71.1765C300.789 71.1204 300.705 71.2046 300.621 71.3168C300.537 71.457 300.452 71.6253 300.256 71.6534C299.835 71.7375 299.779 71.0643 299.892 70.8119C299.976 70.5875 300.144 70.3631 300.368 70.1948C300.424 70.1387 300.481 70.1106 300.537 70.0826C300.537 70.0826 300.565 70.0826 300.565 70.0545C300.873 69.8862 301.182 69.774 301.518 69.7179C302.079 69.6338 302.668 69.6899 303.229 69.7179C304.071 69.8021 304.912 69.9423 305.726 69.746C307.745 69.2691 309.344 67.53 309.316 65.3982C309.681 65.7909 309.989 66.2117 310.27 66.6324C311.757 68.7362 313.524 71.1765 312.233 73.7851C310.466 77.3475 306.792 79.7317 306.062 83.8551C305.698 85.9588 305.978 88.1467 306.848 90.1102C307.044 90.559 307.269 90.9797 307.549 91.4005C307.858 91.8212 308.194 92.2139 308.559 92.5505C309.372 93.2798 310.719 93.925 311.701 93.1115C311.981 92.8591 312.093 92.4664 311.981 92.1298C311.925 91.9334 311.757 91.7932 311.504 91.8773C311.28 91.9615 311.252 92.1298 311.28 92.3261C311.308 92.5505 311.392 92.831 311.224 93.0554C310.859 93.5323 310.158 92.8871 310.018 92.4944C309.344 90.6992 310.719 88.7918 311.672 87.3894C311.981 86.9406 312.29 86.4637 312.57 86.0149C314.169 83.4624 314.898 80.3769 315.123 77.4036C315.403 73.5046 313.552 69.1008 311.42 65.9031C310.663 64.7531 309.709 63.6311 308.531 62.6213C307.353 61.6115 305.978 60.7139 304.408 60.0407C304.155 59.9285 303.931 59.8443 303.678 59.7321C305.558 59.2553 307.465 58.6662 309.428 58.0211C315.235 56.0856 321.013 53.8697 326.679 51.5977C324.435 53.6173 322.528 55.9734 321.406 58.7223C320.761 60.2931 320.312 62.1725 320.284 63.8555C320.172 68.7081 325.501 73.8132 330.326 70.9521C332.037 69.9143 333.495 68.3154 333.748 66.2678C333.972 64.4165 333.187 61.8359 330.999 61.5273C329.484 61.3029 328.138 62.9018 328.895 64.2482C329.54 65.3702 330.185 66.8288 329.428 68.063C328.39 69.8301 326.287 70.0826 324.632 69.1569C320.648 66.9129 321.77 61.2188 323.566 57.9089C324.996 55.3283 326.876 53.0563 329.204 51.2891C329.989 50.7001 330.803 50.1391 331.616 49.6061C331.812 49.522 331.981 49.4659 332.177 49.3817C337.198 47.3341 342.387 45.2303 347.548 43.3229C347.661 43.2949 347.773 43.2388 347.885 43.2107C347.576 43.4632 347.268 43.7437 347.015 44.0522C346.09 45.0901 344.463 47.0536 343.509 49.6622C342.556 52.2989 342.556 54.9917 342.471 57.7686C342.387 59.9846 341.91 62.3688 339.751 63.4628C339.554 63.575 339.077 63.6872 339.049 63.3506C339.049 63.2103 339.161 63.1262 339.246 63.014C339.302 62.9298 339.358 62.8457 339.274 62.7335C339.19 62.6213 339.077 62.6493 338.993 62.7054C338.825 62.8176 338.769 63.042 338.825 63.2384C339.021 63.8835 339.835 63.9677 340.396 63.8835C342.443 63.575 344.996 62.3408 345.837 60.2931C346.707 58.2455 346.595 56.7308 346.511 54.7673C348.474 57.6845 351.363 58.3857 353.635 57.993C353.86 57.965 354.084 57.9089 354.28 57.8528C354.841 57.7406 355.374 57.5162 355.823 57.2076C355.991 57.0954 356.132 56.9552 356.3 56.843C356.805 56.3661 357.142 55.6929 357.142 54.9076C357.113 54.1783 356.833 53.5331 356.328 53.0563C356.272 53.0002 356.216 52.9441 356.132 52.888C356.076 52.8319 356.02 52.8038 355.963 52.7477C355.627 52.5233 355.234 52.355 354.841 52.327C354.14 52.2989 353.523 52.8319 352.822 52.6075C352.457 52.4953 352.093 52.2148 352.093 51.8221C352.093 51.794 352.093 51.766 352.121 51.7379C352.093 51.766 351.812 52.2148 351.812 52.7477C351.812 53.3368 352.177 54.01 353.551 54.4868C353.551 54.4868 355.038 54.7673 355.038 55.5807C355.066 56.9552 352.177 56.843 351.391 56.7308C350.466 56.6186 349.568 56.31 348.839 55.8612C348.053 55.3844 346.903 54.571 346.286 52.888C345.837 51.6818 345.276 48.3158 347.1 45.3706C346.342 47.7268 346.959 49.6061 347.857 51.1769C348.194 51.794 349.063 52.2428 349.484 51.4855C349.849 50.8123 349.147 50.2513 348.727 49.8305C347.857 48.9329 347.436 47.6146 347.38 46.3243C347.324 45.2864 348.194 44.1364 349.259 43.3229C349.877 42.8461 350.606 42.3973 351.363 42.0326C357.142 40.1252 363.481 38.7227 369.96 39.424C371.784 39.8167 373.943 40.4338 376.047 41.2753C375.542 41.6399 374.308 42.5936 373.439 43.8278C372.934 44.501 372.457 45.2864 372.373 46.156C372.288 46.9133 372.457 47.839 372.99 48.4C373.242 48.6805 373.579 48.8488 373.971 48.7366C374.168 48.6805 374.28 48.5122 374.308 48.3158C374.308 48.2036 374.28 48.1195 374.14 48.0914C374.028 48.0914 373.971 48.1475 373.915 48.2597C373.887 48.3719 373.859 48.5122 373.747 48.5963C373.607 48.6805 373.467 48.5963 373.41 48.4561C373.214 48.1475 373.326 47.7548 373.41 47.4463C373.467 47.1938 373.579 46.9694 373.747 46.745C374.392 45.8755 375.514 45.7633 376.215 44.9779C376.917 44.2205 376.889 42.9022 376.44 41.4155C376.973 41.6399 377.506 41.8924 378.039 42.1729C379.638 43.4071 380.675 45.1181 380.507 47.7268C380.255 51.6538 380.423 54.8795 383.593 57.6845C384.154 58.2455 384.799 58.7223 385.472 59.0589C386.594 59.6199 388.305 59.9565 389.147 58.7223C389.399 58.3577 389.399 57.9089 389.147 57.5442C389.006 57.3479 388.81 57.2357 388.557 57.404C388.333 57.5723 388.361 57.7686 388.445 57.993C388.529 58.2455 388.726 58.526 388.614 58.8065C388.333 59.4797 387.379 58.9467 387.099 58.554C386.846 58.2174 386.734 57.7967 386.678 57.3479C386.566 56.1417 386.426 54.3746 386.313 52.9441C386.285 52.2989 386.229 51.6538 386.145 51.0647C386.145 51.0367 386.145 51.0367 386.145 51.0086C385.528 47.1097 383.452 44.6974 381.349 43.2388C381.18 43.0985 381.012 42.9863 380.816 42.8461C389.034 47.5024 393.494 55.8332 393.13 62.8737C392.989 65.4263 392.569 68.9325 391.362 72.1863C391.222 72.4949 391.11 72.8034 390.97 73.0839C390.184 74.7108 389.175 76.1413 387.968 77.3755C386.734 78.6097 385.332 79.7037 383.761 80.5732C382.358 81.3867 380.732 82.0038 378.852 82.4526C373.663 83.7148 368.39 82.3684 364.463 78.778C359.526 74.262 358.909 66.1275 363.425 61.0785C364.406 59.9846 365.613 59.1431 366.959 58.554C370.97 56.7869 376.131 57.3198 379.217 60.5736C380.928 62.3969 381.91 64.8933 381.629 67.4739C381.461 69.185 380.619 70.7558 379.413 71.9899C378.291 73.1119 377.197 73.6168 377.197 73.6168C377.197 73.6168 382.611 72.7192 384.126 66.5202C384.911 63.3786 383.705 58.4418 379.694 55.5527C378.46 54.5149 376.861 53.9258 375.262 53.5612H375.234C374.869 53.477 374.476 53.3929 374.084 53.3368C373.13 53.1685 372.148 53.1124 371.167 53.1685C369.484 53.1685 367.801 53.3648 366.089 53.7014C364.266 54.0661 362.219 54.2624 361.517 52.4111C361.209 51.6538 361.461 50.7842 362.275 50.4757C362.836 50.2513 363.425 50.6159 363.845 50.9525C364.35 51.3452 365.108 50.8964 365.108 50.2513C365.108 49.3256 364.07 48.8207 363.284 48.7927C362.415 48.7646 361.63 49.2695 361.097 49.9427C360.255 50.9806 360.479 52.4953 361.321 53.4209C362.92 55.188 365.557 54.571 367.632 54.4307C368.81 54.3466 370.016 54.2905 371.195 54.3746C371.784 54.4307 372.401 54.5149 373.046 54.599C375.851 55.2441 378.684 56.6466 380.591 59.5077C380.591 59.5077 374.112 53.8978 366.819 56.5625C364.743 57.3198 362.948 58.4979 361.545 60.0407C361.125 60.4895 360.704 60.9944 360.367 61.4993C356.216 67.4459 357.029 76.5901 362.415 81.5269C367.688 86.3515 376.805 87.6418 382.835 85.0332C389.511 82.144 396.72 74.9071 395.935 63.6591C396.075 63.7994 396.187 63.9677 396.327 64.1079C397.449 65.3702 398.74 66.408 400.058 67.2215C400.843 67.6983 401.657 68.091 402.442 68.3996C405.472 70.9521 406.678 75.6084 405.107 78.4134C404.378 79.7037 402.414 80.9098 400.815 80.6854C400.198 80.6013 399.525 80.2647 399.188 79.7037C398.824 79.0866 398.908 78.189 399.749 78.0207C398.964 77.656 398.038 77.9646 397.674 78.75C397.029 80.2086 397.926 81.7513 399.16 82.5648C401.769 84.1917 404.967 82.9575 406.734 80.6574C409.286 77.1231 408.277 72.579 405.5 69.4374C405.444 69.3813 405.387 69.3252 405.331 69.2411C408.81 69.9984 412.961 70.1387 416.187 68.8203C418.936 67.6703 421.628 65.9873 423.564 63.6872C423.929 63.2664 424.265 62.8457 424.602 62.3969C425.64 61.0505 427.014 59.115 428.921 59.1992C429.342 59.2272 430.184 59.676 429.819 60.1809C429.679 60.4053 429.398 60.4053 429.146 60.4614C428.949 60.5175 428.781 60.6017 428.781 60.8261C428.781 61.0785 428.949 61.1907 429.174 61.1907C429.539 61.1907 429.903 60.9663 430.043 60.6297C430.52 59.4236 429.454 58.3857 428.529 57.8247L428.192 57.8528Z" fill="#FFF2EC"/>
<path d="M310.692 38.0413C310.636 38.2657 310.832 37.8169 310.832 37.7889C312.094 34.2546 311.028 30.1874 308.476 27.5226C304.465 23.4834 297.873 23.5115 294.17 27.9995C292.684 29.9069 292.067 32.207 292.291 34.4229C292.515 36.6388 293.665 38.7426 295.404 40.117C295.853 40.4536 296.33 40.7622 296.835 41.0146C298.35 41.7439 300.145 41.9964 301.828 41.6878C305.418 41.0707 308.055 37.4523 307.943 33.8619C307.887 32.5436 307.41 31.2533 306.26 30.2715C305.222 29.3739 303.932 29.0093 302.669 29.0934C302.501 29.0934 302.361 29.1215 302.193 29.1495C302.052 29.1776 301.912 29.2056 301.772 29.2337C301.071 29.43 300.341 29.7386 299.808 30.2715C298.883 31.2252 298.911 32.7399 297.677 33.4411C297.031 33.8058 296.218 33.9741 295.657 33.4972C295.601 33.4692 295.573 33.4131 295.573 33.357C295.601 33.4131 295.825 34.3948 296.611 35.068C297.424 35.7693 298.827 36.1339 301.183 34.7875C301.183 34.7875 303.427 33.0765 304.577 34.0582C305.39 34.7595 305.531 35.6851 305.278 36.6108C305.194 36.9193 305.082 37.2279 304.913 37.5084C302.81 41.6037 297.144 40.5378 294.731 37.312C293.048 35.068 292.992 31.8143 294.451 29.2898C295.909 26.8494 298.462 25.3908 301.295 25.2506C307.718 25.0262 311.982 31.085 310.86 37.1157C310.804 37.4242 310.72 37.7328 310.664 38.0413H310.692Z" fill="#FFF2EC"/>
<circle cx="494" cy="35" r="5" fill="white"/>
<circle cx="520" cy="35" r="5" fill="white"/>
<circle cx="546" cy="35" r="5" fill="white"/>
<rect x="170" y="236" width="168" height="156" fill="white"/>
<path d="M270.372 312.95V325.475C268.922 326.075 267.522 326.625 266.172 327.125C264.822 327.625 263.422 328.075 261.972 328.475C260.572 328.875 259.072 329.2 257.472 329.45C255.872 329.75 254.147 330 252.297 330.2C248.847 330.2 245.522 329.625 242.322 328.475C239.172 327.325 236.372 325.65 233.922 323.45C231.522 321.2 229.597 318.425 228.147 315.125C226.697 311.825 225.972 308.025 225.972 303.725C225.972 299.525 226.622 295.75 227.922 292.4C229.222 289.05 231.047 286.175 233.397 283.775C235.747 281.375 238.597 279.475 241.947 278.075C245.297 276.625 248.997 275.7 253.047 275.3C256.697 275.3 259.897 275.675 262.647 276.425C265.447 277.125 267.997 278.05 270.297 279.2V291.65H269.547L264.822 281.15C263.522 279.8 261.972 278.675 260.172 277.775C258.372 276.825 256.022 276.35 253.122 276.35C250.672 276.35 248.347 276.9 246.147 278C243.997 279.1 242.097 280.75 240.447 282.95C238.797 285.1 237.497 287.825 236.547 291.125C235.597 294.375 235.122 298.175 235.122 302.525C235.122 306.025 235.472 309.375 236.172 312.575C236.922 315.775 238.047 318.6 239.547 321.05C241.097 323.45 243.047 325.375 245.397 326.825C247.797 328.225 250.647 328.925 253.947 328.925C256.197 328.925 258.272 328.475 260.172 327.575C262.072 326.675 263.647 325.575 264.897 324.275L269.622 312.95H270.372Z" fill="#2D3C4B"/>
<path d="M580 100V65.78H583.48V100H580ZM585.22 100V65.78H586.96V100H585.22ZM592.18 100V65.78H593.92V100H592.18ZM590.15 118.734C589.067 118.734 588.139 118.444 587.366 117.864C586.593 117.323 585.993 116.53 585.568 115.486C585.143 114.481 584.93 113.301 584.93 111.948C584.93 110.169 585.201 108.758 585.742 107.714C586.283 106.67 586.941 105.935 587.714 105.51C588.487 105.123 589.261 104.93 590.034 104.93C590.846 104.93 591.619 105.143 592.354 105.568C593.127 105.955 593.688 106.496 594.036 107.192L592.992 108.004L592.818 108.178L592.76 108.062C592.76 107.946 592.741 107.83 592.702 107.714C592.625 107.637 592.509 107.501 592.354 107.308C592.006 106.921 591.658 106.651 591.31 106.496C590.962 106.341 590.537 106.264 590.034 106.264C588.99 106.264 588.12 106.67 587.424 107.482C586.767 108.333 586.438 109.705 586.438 111.6C586.438 113.456 586.767 114.887 587.424 115.892C588.081 116.897 588.99 117.4 590.15 117.4C590.575 117.4 591.02 117.323 591.484 117.168C591.987 117.052 592.393 116.859 592.702 116.588V113.398H590.266V112.064H594.094V117.342C592.818 118.27 591.503 118.734 590.15 118.734ZM602.335 100V65.78H605.815V100H602.335ZM611.035 100V65.78H612.775V100H611.035ZM617.995 100V65.78H619.735V100H617.995ZM608.251 117.226H610.919V106.322H608.425V105.046H615.095V106.322H612.427V117.226H615.211V118.502H608.251V117.226ZM624.669 100V65.78H626.409V100H624.669ZM631.629 100V65.78H635.109V100H631.629ZM640.329 100V65.78H642.069V100H640.329ZM630.527 105.046H638.241V106.38H632.035V110.614H637.081V111.89H632.035V118.502H630.527V105.046ZM647.004 100V65.78H650.484V100H647.004ZM652.224 100V65.78H657.444V100H652.224ZM662.664 100V65.78H664.404V100H662.664ZM655.646 106.38H651.876V105.046H661.156V106.38H657.212V118.502H655.646V106.38ZM669.338 100V65.78H672.818V100H669.338ZM674.558 100V65.78H678.038V100H674.558ZM681.518 100V65.78H684.998V100H681.518ZM691.673 100V65.78H696.893V100H691.673ZM698.633 100V65.78H700.373V100H698.633ZM702.113 100V65.78H705.593V100H702.113ZM696.371 105.046H697.937L701.417 115.37L704.665 105.046H706.173L701.649 118.56H700.953L696.371 105.046ZM714.007 100V65.78H715.747V100H714.007ZM720.967 100V65.78H726.187V100H720.967ZM727.927 100V65.78H731.407V100H727.927ZM723.577 118.734C722.031 118.734 720.851 118.135 720.039 116.936C719.189 115.737 718.763 114.036 718.763 111.832C718.763 109.705 719.189 108.023 720.039 106.786C720.89 105.587 722.069 104.988 723.577 104.988C725.085 104.988 726.265 105.587 727.115 106.786C727.966 108.023 728.391 109.705 728.391 111.832C728.391 114.036 727.966 115.737 727.115 116.936C726.303 118.135 725.124 118.734 723.577 118.734ZM723.577 117.4C724.621 117.4 725.414 116.936 725.955 116.008C726.535 115.041 726.825 113.649 726.825 111.832C726.825 110.131 726.535 108.777 725.955 107.772C725.375 106.805 724.583 106.322 723.577 106.322C722.572 106.322 721.779 106.805 721.199 107.772C720.619 108.777 720.329 110.131 720.329 111.832C720.329 113.649 720.6 115.041 721.141 116.008C721.721 116.936 722.533 117.4 723.577 117.4ZM736.342 100V65.78H739.822V100H736.342ZM741.562 100V65.78H746.782V100H741.562ZM748.522 100V65.78H753.742V100H748.522ZM745.912 118.734C744.52 118.734 743.456 118.309 742.722 117.458C741.987 116.607 741.62 115.409 741.62 113.862V105.046H743.302V105.22C743.186 105.297 743.128 105.394 743.128 105.51C743.089 105.587 743.07 105.761 743.07 106.032V113.862C743.07 115.022 743.302 115.911 743.766 116.53C744.191 117.149 744.926 117.458 745.97 117.458C746.975 117.458 747.71 117.149 748.174 116.53C748.638 115.911 748.87 115.003 748.87 113.804V105.046H750.32V113.804C750.32 115.467 749.933 116.704 749.16 117.516C748.386 118.328 747.304 118.734 745.912 118.734ZM758.676 100V65.78H760.416V100H758.676ZM765.636 100V65.78H767.376V100H765.636ZM772.596 100V65.78H776.076V100H772.596ZM769 118.734C767.995 118.734 767.106 118.483 766.332 117.98C765.52 117.477 764.882 116.723 764.418 115.718C763.954 114.674 763.722 113.379 763.722 111.832C763.722 110.208 763.974 108.874 764.476 107.83C764.979 106.825 765.617 106.09 766.39 105.626C767.164 105.201 767.995 104.988 768.884 104.988C769.851 104.988 770.682 105.22 771.378 105.684C772.074 106.148 772.596 106.786 772.944 107.598L771.668 108.236L771.494 108.294L771.436 108.178V108.004C771.436 107.849 771.34 107.637 771.146 107.366C770.837 106.941 770.489 106.631 770.102 106.438C769.716 106.245 769.31 106.148 768.884 106.148C767.724 106.148 766.816 106.651 766.158 107.656C765.54 108.623 765.23 109.995 765.23 111.774C765.23 112.857 765.385 113.843 765.694 114.732C766.042 115.583 766.487 116.24 767.028 116.704C767.608 117.168 768.246 117.4 768.942 117.4C769.484 117.4 769.986 117.265 770.45 116.994C770.953 116.685 771.359 116.279 771.668 115.776L772.77 116.53C772.306 117.265 771.784 117.806 771.204 118.154C770.586 118.541 769.851 118.734 769 118.734ZM781.011 100V65.78H784.491V100H781.011ZM789.711 100V65.78H791.451V100H789.711ZM793.191 100V65.78H794.931V100H793.191ZM786.289 105.046H788.029V105.22C787.951 105.297 787.893 105.394 787.855 105.51C787.855 105.587 787.855 105.761 787.855 106.032V110.788H793.075V105.046H794.873V105.22C794.795 105.297 794.737 105.394 794.699 105.51C794.699 105.587 794.699 105.761 794.699 106.032V118.502H793.075V112.122H787.855V118.502H786.289V105.046ZM803.345 100V65.78H805.085V100H803.345ZM810.305 100V65.78H813.785V100H810.305ZM815.525 100V65.78H817.265V100H815.525ZM808.797 105.046H817.033V106.38H810.189V110.788H815.873V112.18H810.189V117.168H816.975V118.502H808.797V105.046ZM825.68 100V65.78H829.16V100H825.68ZM834.38 100V65.78H836.12V100H834.38ZM837.86 100V65.78H843.08V100H837.86ZM831.074 105.046H835.018C836.565 105.046 837.686 105.394 838.382 106.09C839.117 106.747 839.484 107.695 839.484 108.932C839.484 109.705 839.233 110.44 838.73 111.136C838.227 111.832 837.57 112.296 836.758 112.528L839.89 118.502H838.208L835.192 112.586H832.582V118.502H831.074V105.046ZM835.192 111.252C836.12 111.252 836.816 111.039 837.28 110.614C837.705 110.227 837.918 109.667 837.918 108.932C837.918 108.197 837.705 107.598 837.28 107.134C836.816 106.709 836.12 106.496 835.192 106.496H832.582V111.252H835.192Z" fill="#3D3A3A"/>
</svg>
